solid OpenSCAD_Model
  facet normal -1 0 0
    outer loop
      vertex 0 71.88 0
      vertex 0 31.88 6.2
      vertex 0 71.88 6.2
    endloop
  endfacet
  facet normal -1 0 0
    outer loop
      vertex 0 0 0
      vertex 0 31.88 6.2
      vertex 0 71.88 0
    endloop
  endfacet
  facet normal -1 -0 0
    outer loop
      vertex 0 31.88 6.2
      vertex 0 0 0
      vertex 0 29.88 6.2
    endloop
  endfacet
  facet normal -1 -0 0
    outer loop
      vertex 0 29.88 6.2
      vertex 0 0 0
      vertex 0 0 6.2
    endloop
  endfacet
  facet normal -0 0 1
    outer loop
      vertex 2.48999 71.88 3
      vertex 77.19 31.88 3
      vertex 77.19 71.88 3
    endloop
  endfacet
  facet normal 0 0 1
    outer loop
      vertex 77.19 31.88 3
      vertex 2.48999 71.88 3
      vertex 2.48999 31.88 3
    endloop
  endfacet
  facet normal -0 0 1
    outer loop
      vertex 2.48999 29.88 3
      vertex 77.19 0 3
      vertex 77.19 29.88 3
    endloop
  endfacet
  facet normal 0 0 1
    outer loop
      vertex 77.19 0 3
      vertex 2.48999 29.88 3
      vertex 2.48999 0 3
    endloop
  endfacet
  facet normal 1 -0 0
    outer loop
      vertex 79.68 31.88 6.2
      vertex 79.68 71.88 0
      vertex 79.68 71.88 6.2
    endloop
  endfacet
  facet normal 1 0 0
    outer loop
      vertex 79.68 0 0
      vertex 79.68 31.88 6.2
      vertex 79.68 29.88 6.2
    endloop
  endfacet
  facet normal 1 0 0
    outer loop
      vertex 79.68 0 0
      vertex 79.68 29.88 6.2
      vertex 79.68 0 6.2
    endloop
  endfacet
  facet normal 1 0 0
    outer loop
      vertex 79.68 31.88 6.2
      vertex 79.68 0 0
      vertex 79.68 71.88 0
    endloop
  endfacet
  facet normal 0 0 -1
    outer loop
      vertex 0 0 0
      vertex 79.68 71.88 0
      vertex 79.68 0 0
    endloop
  endfacet
  facet normal -0 0 -1
    outer loop
      vertex 79.68 71.88 0
      vertex 0 0 0
      vertex 0 71.88 0
    endloop
  endfacet
  facet normal 0 -1 0
    outer loop
      vertex 0 0 6.2
      vertex 2.48999 0 4.59999
      vertex 3.28999 0 6.2
    endloop
  endfacet
  facet normal 0 -1 0
    outer loop
      vertex 0 0 6.2
      vertex 2.48999 0 3
      vertex 2.48999 0 4.59999
    endloop
  endfacet
  facet normal 0 -1 -0
    outer loop
      vertex 2.48999 0 3
      vertex 0 0 0
      vertex 77.19 0 3
    endloop
  endfacet
  facet normal 0 -1 0
    outer loop
      vertex 0 0 0
      vertex 2.48999 0 3
      vertex 0 0 6.2
    endloop
  endfacet
  facet normal 0 -1 0
    outer loop
      vertex 77.19 0 4.59999
      vertex 79.68 0 6.2
      vertex 76.39 0 6.2
    endloop
  endfacet
  facet normal 0 -1 0
    outer loop
      vertex 77.19 0 3
      vertex 79.68 0 6.2
      vertex 77.19 0 4.59999
    endloop
  endfacet
  facet normal 0 -1 0
    outer loop
      vertex 77.19 0 3
      vertex 79.68 0 0
      vertex 79.68 0 6.2
    endloop
  endfacet
  facet normal 0 -1 0
    outer loop
      vertex 79.68 0 0
      vertex 77.19 0 3
      vertex 0 0 0
    endloop
  endfacet
  facet normal 0 1 0
    outer loop
      vertex 79.68 71.88 6.2
      vertex 77.19 71.88 4.59999
      vertex 76.39 71.88 6.2
    endloop
  endfacet
  facet normal 0 1 0
    outer loop
      vertex 79.68 71.88 6.2
      vertex 77.19 71.88 3
      vertex 77.19 71.88 4.59999
    endloop
  endfacet
  facet normal 0 1 0
    outer loop
      vertex 77.19 71.88 3
      vertex 79.68 71.88 0
      vertex 2.48999 71.88 3
    endloop
  endfacet
  facet normal 0 1 -0
    outer loop
      vertex 79.68 71.88 0
      vertex 77.19 71.88 3
      vertex 79.68 71.88 6.2
    endloop
  endfacet
  facet normal 0 1 -0
    outer loop
      vertex 2.48999 71.88 4.59999
      vertex 0 71.88 6.2
      vertex 3.28999 71.88 6.2
    endloop
  endfacet
  facet normal 0 1 -0
    outer loop
      vertex 2.48999 71.88 3
      vertex 0 71.88 6.2
      vertex 2.48999 71.88 4.59999
    endloop
  endfacet
  facet normal 0 1 0
    outer loop
      vertex 2.48999 71.88 3
      vertex 0 71.88 0
      vertex 0 71.88 6.2
    endloop
  endfacet
  facet normal 0 1 0
    outer loop
      vertex 0 71.88 0
      vertex 2.48999 71.88 3
      vertex 79.68 71.88 0
    endloop
  endfacet
  facet normal -0 0 1
    outer loop
      vertex 0 31.88 6.2
      vertex 79.68 29.88 6.2
      vertex 79.68 31.88 6.2
    endloop
  endfacet
  facet normal 0 0 1
    outer loop
      vertex 79.68 29.88 6.2
      vertex 0 31.88 6.2
      vertex 0 29.88 6.2
    endloop
  endfacet
  facet normal 0 1 -0
    outer loop
      vertex 77.19 31.88 3
      vertex 76.39 31.88 6.2
      vertex 77.19 31.88 4.59999
    endloop
  endfacet
  facet normal 0 1 0
    outer loop
      vertex 76.39 31.88 6.2
      vertex 77.19 31.88 3
      vertex 3.28999 31.88 6.2
    endloop
  endfacet
  facet normal 0 1 0
    outer loop
      vertex 2.48999 31.88 3
      vertex 3.28999 31.88 6.2
      vertex 77.19 31.88 3
    endloop
  endfacet
  facet normal 0 1 0
    outer loop
      vertex 3.28999 31.88 6.2
      vertex 2.48999 31.88 3
      vertex 2.48999 31.88 4.59999
    endloop
  endfacet
  facet normal 0 1 0
    outer loop
      vertex 79.68 31.88 6.2
      vertex 76.39 31.88 6.2
      vertex 0 31.88 6.2
    endloop
  endfacet
  facet normal 0 1 -0
    outer loop
      vertex 3.28999 31.88 6.2
      vertex 0 31.88 6.2
      vertex 76.39 31.88 6.2
    endloop
  endfacet
  facet normal 0 -1 0
    outer loop
      vertex 2.48999 29.88 3
      vertex 3.28999 29.88 6.2
      vertex 2.48999 29.88 4.59999
    endloop
  endfacet
  facet normal 0 -1 -0
    outer loop
      vertex 3.28999 29.88 6.2
      vertex 2.48999 29.88 3
      vertex 76.39 29.88 6.2
    endloop
  endfacet
  facet normal 0 -1 0
    outer loop
      vertex 77.19 29.88 3
      vertex 76.39 29.88 6.2
      vertex 2.48999 29.88 3
    endloop
  endfacet
  facet normal 0 -1 0
    outer loop
      vertex 76.39 29.88 6.2
      vertex 77.19 29.88 3
      vertex 77.19 29.88 4.59999
    endloop
  endfacet
  facet normal 0 -1 0
    outer loop
      vertex 0 29.88 6.2
      vertex 3.28999 29.88 6.2
      vertex 79.68 29.88 6.2
    endloop
  endfacet
  facet normal 0 -1 0
    outer loop
      vertex 76.39 29.88 6.2
      vertex 79.68 29.88 6.2
      vertex 3.28999 29.88 6.2
    endloop
  endfacet
  facet normal 0.894427 0 -0.447214
    outer loop
      vertex 3.28999 0 6.2
      vertex 2.48999 29.88 4.59999
      vertex 3.28999 29.88 6.2
    endloop
  endfacet
  facet normal 0.894427 0 -0.447214
    outer loop
      vertex 2.48999 29.88 4.59999
      vertex 3.28999 0 6.2
      vertex 2.48999 0 4.59999
    endloop
  endfacet
  facet normal -0 0 1
    outer loop
      vertex 0 29.88 6.2
      vertex 3.28999 0 6.2
      vertex 3.28999 29.88 6.2
    endloop
  endfacet
  facet normal 0 0 1
    outer loop
      vertex 3.28999 0 6.2
      vertex 0 29.88 6.2
      vertex 0 0 6.2
    endloop
  endfacet
  facet normal 1 -0 0
    outer loop
      vertex 2.48999 0 4.59999
      vertex 2.48999 29.88 3
      vertex 2.48999 29.88 4.59999
    endloop
  endfacet
  facet normal 1 0 0
    outer loop
      vertex 2.48999 29.88 3
      vertex 2.48999 0 4.59999
      vertex 2.48999 0 3
    endloop
  endfacet
  facet normal -0.894427 0 -0.447214
    outer loop
      vertex 77.19 0 4.59999
      vertex 76.39 29.88 6.2
      vertex 77.19 29.88 4.59999
    endloop
  endfacet
  facet normal -0.894427 -0 -0.447214
    outer loop
      vertex 76.39 29.88 6.2
      vertex 77.19 0 4.59999
      vertex 76.39 0 6.2
    endloop
  endfacet
  facet normal -0 0 1
    outer loop
      vertex 76.39 29.88 6.2
      vertex 79.68 0 6.2
      vertex 79.68 29.88 6.2
    endloop
  endfacet
  facet normal 0 0 1
    outer loop
      vertex 79.68 0 6.2
      vertex 76.39 29.88 6.2
      vertex 76.39 0 6.2
    endloop
  endfacet
  facet normal -1 0 0
    outer loop
      vertex 77.19 0 3
      vertex 77.19 29.88 4.59999
      vertex 77.19 29.88 3
    endloop
  endfacet
  facet normal -1 -0 0
    outer loop
      vertex 77.19 29.88 4.59999
      vertex 77.19 0 3
      vertex 77.19 0 4.59999
    endloop
  endfacet
  facet normal 0.894427 0 -0.447214
    outer loop
      vertex 3.28999 31.88 6.2
      vertex 2.48999 71.88 4.59999
      vertex 3.28999 71.88 6.2
    endloop
  endfacet
  facet normal 0.894427 0 -0.447214
    outer loop
      vertex 2.48999 71.88 4.59999
      vertex 3.28999 31.88 6.2
      vertex 2.48999 31.88 4.59999
    endloop
  endfacet
  facet normal -0 0 1
    outer loop
      vertex 0 71.88 6.2
      vertex 3.28999 31.88 6.2
      vertex 3.28999 71.88 6.2
    endloop
  endfacet
  facet normal 0 0 1
    outer loop
      vertex 3.28999 31.88 6.2
      vertex 0 71.88 6.2
      vertex 0 31.88 6.2
    endloop
  endfacet
  facet normal 1 -0 0
    outer loop
      vertex 2.48999 31.88 4.59999
      vertex 2.48999 71.88 3
      vertex 2.48999 71.88 4.59999
    endloop
  endfacet
  facet normal 1 0 0
    outer loop
      vertex 2.48999 71.88 3
      vertex 2.48999 31.88 4.59999
      vertex 2.48999 31.88 3
    endloop
  endfacet
  facet normal -0.894427 0 -0.447214
    outer loop
      vertex 77.19 31.88 4.59999
      vertex 76.39 71.88 6.2
      vertex 77.19 71.88 4.59999
    endloop
  endfacet
  facet normal -0.894427 -0 -0.447214
    outer loop
      vertex 76.39 71.88 6.2
      vertex 77.19 31.88 4.59999
      vertex 76.39 31.88 6.2
    endloop
  endfacet
  facet normal -0 0 1
    outer loop
      vertex 76.39 71.88 6.2
      vertex 79.68 31.88 6.2
      vertex 79.68 71.88 6.2
    endloop
  endfacet
  facet normal 0 0 1
    outer loop
      vertex 79.68 31.88 6.2
      vertex 76.39 71.88 6.2
      vertex 76.39 31.88 6.2
    endloop
  endfacet
  facet normal -1 0 0
    outer loop
      vertex 77.19 31.88 3
      vertex 77.19 71.88 4.59999
      vertex 77.19 71.88 3
    endloop
  endfacet
  facet normal -1 -0 0
    outer loop
      vertex 77.19 71.88 4.59999
      vertex 77.19 31.88 3
      vertex 77.19 31.88 4.59999
    endloop
  endfacet
  facet normal 1 -0 0
    outer loop
      vertex 4.98 -28.39 1.6
      vertex 4.98 -3.49 9.15527e-006
      vertex 4.98 -3.49 1.6
    endloop
  endfacet
  facet normal 1 0 0
    outer loop
      vertex 4.98 -3.49 9.15527e-006
      vertex 4.98 -28.39 1.6
      vertex 4.98 -28.39 9.15527e-006
    endloop
  endfacet
  facet normal -1 0 0
    outer loop
      vertex 7.47 -28.39 9.15527e-006
      vertex 7.47 -3.49 1.6
      vertex 7.47 -3.49 9.15527e-006
    endloop
  endfacet
  facet normal -1 -0 0
    outer loop
      vertex 7.47 -3.49 1.6
      vertex 7.47 -28.39 9.15527e-006
      vertex 7.47 -28.39 1.6
    endloop
  endfacet
  facet normal 0 -1 0
    outer loop
      vertex 4.98 -3.49 9.15527e-006
      vertex 7.47 -3.49 1.6
      vertex 4.98 -3.49 1.6
    endloop
  endfacet
  facet normal 0 -1 -0
    outer loop
      vertex 7.47 -3.49 1.6
      vertex 4.98 -3.49 9.15527e-006
      vertex 7.47 -3.49 9.15527e-006
    endloop
  endfacet
  facet normal 0 1 -0
    outer loop
      vertex 7.47 -28.39 9.15527e-006
      vertex 4.98 -28.39 1.6
      vertex 7.47 -28.39 1.6
    endloop
  endfacet
  facet normal 0 1 0
    outer loop
      vertex 4.98 -28.39 1.6
      vertex 7.47 -28.39 9.15527e-006
      vertex 4.98 -28.39 9.15527e-006
    endloop
  endfacet
  facet normal 1 -0 0
    outer loop
      vertex 12.45 -28.39 1.6
      vertex 12.45 -3.49 9.15527e-006
      vertex 12.45 -3.49 1.6
    endloop
  endfacet
  facet normal 1 0 0
    outer loop
      vertex 12.45 -3.49 9.15527e-006
      vertex 12.45 -28.39 1.6
      vertex 12.45 -28.39 9.15527e-006
    endloop
  endfacet
  facet normal -1 0 0
    outer loop
      vertex 14.94 -28.39 9.15527e-006
      vertex 14.94 -3.49 1.6
      vertex 14.94 -3.49 9.15527e-006
    endloop
  endfacet
  facet normal -1 -0 0
    outer loop
      vertex 14.94 -3.49 1.6
      vertex 14.94 -28.39 9.15527e-006
      vertex 14.94 -28.39 1.6
    endloop
  endfacet
  facet normal 0 -1 0
    outer loop
      vertex 12.45 -3.49 9.15527e-006
      vertex 14.94 -3.49 1.6
      vertex 12.45 -3.49 1.6
    endloop
  endfacet
  facet normal 0 -1 -0
    outer loop
      vertex 14.94 -3.49 1.6
      vertex 12.45 -3.49 9.15527e-006
      vertex 14.94 -3.49 9.15527e-006
    endloop
  endfacet
  facet normal 0 1 -0
    outer loop
      vertex 14.94 -28.39 9.15527e-006
      vertex 12.45 -28.39 1.6
      vertex 14.94 -28.39 1.6
    endloop
  endfacet
  facet normal 0 1 0
    outer loop
      vertex 12.45 -28.39 1.6
      vertex 14.94 -28.39 9.15527e-006
      vertex 12.45 -28.39 9.15527e-006
    endloop
  endfacet
  facet normal 1 -0 0
    outer loop
      vertex 19.92 -28.39 1.6
      vertex 19.92 -3.49 9.15527e-006
      vertex 19.92 -3.49 1.6
    endloop
  endfacet
  facet normal 1 0 0
    outer loop
      vertex 19.92 -3.49 9.15527e-006
      vertex 19.92 -28.39 1.6
      vertex 19.92 -28.39 9.15527e-006
    endloop
  endfacet
  facet normal -1 0 0
    outer loop
      vertex 22.41 -28.39 9.15527e-006
      vertex 22.41 -3.49 1.6
      vertex 22.41 -3.49 9.15527e-006
    endloop
  endfacet
  facet normal -1 -0 0
    outer loop
      vertex 22.41 -3.49 1.6
      vertex 22.41 -28.39 9.15527e-006
      vertex 22.41 -28.39 1.6
    endloop
  endfacet
  facet normal 0 1 -0
    outer loop
      vertex 22.41 -28.39 9.15527e-006
      vertex 19.92 -28.39 1.6
      vertex 22.41 -28.39 1.6
    endloop
  endfacet
  facet normal 0 1 0
    outer loop
      vertex 19.92 -28.39 1.6
      vertex 22.41 -28.39 9.15527e-006
      vertex 19.92 -28.39 9.15527e-006
    endloop
  endfacet
  facet normal 0 -1 0
    outer loop
      vertex 19.92 -3.49 9.15527e-006
      vertex 22.41 -3.49 1.6
      vertex 19.92 -3.49 1.6
    endloop
  endfacet
  facet normal 0 -1 -0
    outer loop
      vertex 22.41 -3.49 1.6
      vertex 19.92 -3.49 9.15527e-006
      vertex 22.41 -3.49 9.15527e-006
    endloop
  endfacet
  facet normal 1 -0 0
    outer loop
      vertex 27.39 -28.39 1.6
      vertex 27.39 -3.49 9.15527e-006
      vertex 27.39 -3.49 1.6
    endloop
  endfacet
  facet normal 1 0 0
    outer loop
      vertex 27.39 -3.49 9.15527e-006
      vertex 27.39 -28.39 1.6
      vertex 27.39 -28.39 9.15527e-006
    endloop
  endfacet
  facet normal -1 0 0
    outer loop
      vertex 29.88 -28.39 9.15527e-006
      vertex 29.88 -3.49 1.6
      vertex 29.88 -3.49 9.15527e-006
    endloop
  endfacet
  facet normal -1 -0 0
    outer loop
      vertex 29.88 -3.49 1.6
      vertex 29.88 -28.39 9.15527e-006
      vertex 29.88 -28.39 1.6
    endloop
  endfacet
  facet normal 0 1 -0
    outer loop
      vertex 29.88 -28.39 9.15527e-006
      vertex 27.39 -28.39 1.6
      vertex 29.88 -28.39 1.6
    endloop
  endfacet
  facet normal 0 1 0
    outer loop
      vertex 27.39 -28.39 1.6
      vertex 29.88 -28.39 9.15527e-006
      vertex 27.39 -28.39 9.15527e-006
    endloop
  endfacet
  facet normal 0 -1 0
    outer loop
      vertex 27.39 -3.49 9.15527e-006
      vertex 29.88 -3.49 1.6
      vertex 27.39 -3.49 1.6
    endloop
  endfacet
  facet normal 0 -1 -0
    outer loop
      vertex 29.88 -3.49 1.6
      vertex 27.39 -3.49 9.15527e-006
      vertex 29.88 -3.49 9.15527e-006
    endloop
  endfacet
  facet normal 1 -0 0
    outer loop
      vertex 34.86 -28.39 1.6
      vertex 34.86 -3.49 9.15527e-006
      vertex 34.86 -3.49 1.6
    endloop
  endfacet
  facet normal 1 0 0
    outer loop
      vertex 34.86 -3.49 9.15527e-006
      vertex 34.86 -28.39 1.6
      vertex 34.86 -28.39 9.15527e-006
    endloop
  endfacet
  facet normal -1 0 0
    outer loop
      vertex 37.35 -28.39 9.15527e-006
      vertex 37.35 -3.49 1.6
      vertex 37.35 -3.49 9.15527e-006
    endloop
  endfacet
  facet normal -1 -0 0
    outer loop
      vertex 37.35 -3.49 1.6
      vertex 37.35 -28.39 9.15527e-006
      vertex 37.35 -28.39 1.6
    endloop
  endfacet
  facet normal 0 1 -0
    outer loop
      vertex 37.35 -28.39 9.15527e-006
      vertex 34.86 -28.39 1.6
      vertex 37.35 -28.39 1.6
    endloop
  endfacet
  facet normal 0 1 0
    outer loop
      vertex 34.86 -28.39 1.6
      vertex 37.35 -28.39 9.15527e-006
      vertex 34.86 -28.39 9.15527e-006
    endloop
  endfacet
  facet normal 0 -1 0
    outer loop
      vertex 34.86 -3.49 9.15527e-006
      vertex 37.35 -3.49 1.6
      vertex 34.86 -3.49 1.6
    endloop
  endfacet
  facet normal 0 -1 -0
    outer loop
      vertex 37.35 -3.49 1.6
      vertex 34.86 -3.49 9.15527e-006
      vertex 37.35 -3.49 9.15527e-006
    endloop
  endfacet
  facet normal 1 -0 0
    outer loop
      vertex 42.33 -28.39 1.6
      vertex 42.33 -3.49 9.15527e-006
      vertex 42.33 -3.49 1.6
    endloop
  endfacet
  facet normal 1 0 0
    outer loop
      vertex 42.33 -3.49 9.15527e-006
      vertex 42.33 -28.39 1.6
      vertex 42.33 -28.39 9.15527e-006
    endloop
  endfacet
  facet normal -1 0 0
    outer loop
      vertex 44.82 -28.39 9.15527e-006
      vertex 44.82 -3.49 1.6
      vertex 44.82 -3.49 9.15527e-006
    endloop
  endfacet
  facet normal -1 -0 0
    outer loop
      vertex 44.82 -3.49 1.6
      vertex 44.82 -28.39 9.15527e-006
      vertex 44.82 -28.39 1.6
    endloop
  endfacet
  facet normal 0 -1 0
    outer loop
      vertex 42.33 -3.49 9.15527e-006
      vertex 44.82 -3.49 1.6
      vertex 42.33 -3.49 1.6
    endloop
  endfacet
  facet normal 0 -1 -0
    outer loop
      vertex 44.82 -3.49 1.6
      vertex 42.33 -3.49 9.15527e-006
      vertex 44.82 -3.49 9.15527e-006
    endloop
  endfacet
  facet normal 0 1 -0
    outer loop
      vertex 44.82 -28.39 9.15527e-006
      vertex 42.33 -28.39 1.6
      vertex 44.82 -28.39 1.6
    endloop
  endfacet
  facet normal 0 1 0
    outer loop
      vertex 42.33 -28.39 1.6
      vertex 44.82 -28.39 9.15527e-006
      vertex 42.33 -28.39 9.15527e-006
    endloop
  endfacet
  facet normal 1 -0 0
    outer loop
      vertex 49.8 -28.39 1.6
      vertex 49.8 -3.49 9.15527e-006
      vertex 49.8 -3.49 1.6
    endloop
  endfacet
  facet normal 1 0 0
    outer loop
      vertex 49.8 -3.49 9.15527e-006
      vertex 49.8 -28.39 1.6
      vertex 49.8 -28.39 9.15527e-006
    endloop
  endfacet
  facet normal -1 0 0
    outer loop
      vertex 52.29 -28.39 9.15527e-006
      vertex 52.29 -3.49 1.6
      vertex 52.29 -3.49 9.15527e-006
    endloop
  endfacet
  facet normal -1 -0 0
    outer loop
      vertex 52.29 -3.49 1.6
      vertex 52.29 -28.39 9.15527e-006
      vertex 52.29 -28.39 1.6
    endloop
  endfacet
  facet normal 0 -1 0
    outer loop
      vertex 49.8 -3.49 9.15527e-006
      vertex 52.29 -3.49 1.6
      vertex 49.8 -3.49 1.6
    endloop
  endfacet
  facet normal 0 -1 -0
    outer loop
      vertex 52.29 -3.49 1.6
      vertex 49.8 -3.49 9.15527e-006
      vertex 52.29 -3.49 9.15527e-006
    endloop
  endfacet
  facet normal 0 1 -0
    outer loop
      vertex 52.29 -28.39 9.15527e-006
      vertex 49.8 -28.39 1.6
      vertex 52.29 -28.39 1.6
    endloop
  endfacet
  facet normal 0 1 0
    outer loop
      vertex 49.8 -28.39 1.6
      vertex 52.29 -28.39 9.15527e-006
      vertex 49.8 -28.39 9.15527e-006
    endloop
  endfacet
  facet normal 1 -0 0
    outer loop
      vertex 57.27 -28.39 1.6
      vertex 57.27 -3.49 9.15527e-006
      vertex 57.27 -3.49 1.6
    endloop
  endfacet
  facet normal 1 0 0
    outer loop
      vertex 57.27 -3.49 9.15527e-006
      vertex 57.27 -28.39 1.6
      vertex 57.27 -28.39 9.15527e-006
    endloop
  endfacet
  facet normal -1 0 0
    outer loop
      vertex 59.76 -28.39 9.15527e-006
      vertex 59.76 -3.49 1.6
      vertex 59.76 -3.49 9.15527e-006
    endloop
  endfacet
  facet normal -1 -0 0
    outer loop
      vertex 59.76 -3.49 1.6
      vertex 59.76 -28.39 9.15527e-006
      vertex 59.76 -28.39 1.6
    endloop
  endfacet
  facet normal 0 -1 0
    outer loop
      vertex 57.27 -3.49 9.15527e-006
      vertex 59.76 -3.49 1.6
      vertex 57.27 -3.49 1.6
    endloop
  endfacet
  facet normal 0 -1 -0
    outer loop
      vertex 59.76 -3.49 1.6
      vertex 57.27 -3.49 9.15527e-006
      vertex 59.76 -3.49 9.15527e-006
    endloop
  endfacet
  facet normal 0 1 -0
    outer loop
      vertex 59.76 -28.39 9.15527e-006
      vertex 57.27 -28.39 1.6
      vertex 59.76 -28.39 1.6
    endloop
  endfacet
  facet normal 0 1 0
    outer loop
      vertex 57.27 -28.39 1.6
      vertex 59.76 -28.39 9.15527e-006
      vertex 57.27 -28.39 9.15527e-006
    endloop
  endfacet
  facet normal 1 -0 0
    outer loop
      vertex 64.74 -28.39 1.6
      vertex 64.74 -3.49 9.15527e-006
      vertex 64.74 -3.49 1.6
    endloop
  endfacet
  facet normal 1 0 0
    outer loop
      vertex 64.74 -3.49 9.15527e-006
      vertex 64.74 -28.39 1.6
      vertex 64.74 -28.39 9.15527e-006
    endloop
  endfacet
  facet normal -1 0 0
    outer loop
      vertex 67.23 -28.39 9.15527e-006
      vertex 67.23 -3.49 1.6
      vertex 67.23 -3.49 9.15527e-006
    endloop
  endfacet
  facet normal -1 -0 0
    outer loop
      vertex 67.23 -3.49 1.6
      vertex 67.23 -28.39 9.15527e-006
      vertex 67.23 -28.39 1.6
    endloop
  endfacet
  facet normal 0 1 -0
    outer loop
      vertex 67.23 -28.39 9.15527e-006
      vertex 64.74 -28.39 1.6
      vertex 67.23 -28.39 1.6
    endloop
  endfacet
  facet normal 0 1 0
    outer loop
      vertex 64.74 -28.39 1.6
      vertex 67.23 -28.39 9.15527e-006
      vertex 64.74 -28.39 9.15527e-006
    endloop
  endfacet
  facet normal 0 -1 0
    outer loop
      vertex 64.74 -3.49 9.15527e-006
      vertex 67.23 -3.49 1.6
      vertex 64.74 -3.49 1.6
    endloop
  endfacet
  facet normal 0 -1 -0
    outer loop
      vertex 67.23 -3.49 1.6
      vertex 64.74 -3.49 9.15527e-006
      vertex 67.23 -3.49 9.15527e-006
    endloop
  endfacet
  facet normal 1 -0 0
    outer loop
      vertex 72.21 -28.39 1.6
      vertex 72.21 -3.49 9.15527e-006
      vertex 72.21 -3.49 1.6
    endloop
  endfacet
  facet normal 1 0 0
    outer loop
      vertex 72.21 -3.49 9.15527e-006
      vertex 72.21 -28.39 1.6
      vertex 72.21 -28.39 9.15527e-006
    endloop
  endfacet
  facet normal -1 0 0
    outer loop
      vertex 74.7 -28.39 9.15527e-006
      vertex 74.7 -3.49 1.6
      vertex 74.7 -3.49 9.15527e-006
    endloop
  endfacet
  facet normal -1 -0 0
    outer loop
      vertex 74.7 -3.49 1.6
      vertex 74.7 -28.39 9.15527e-006
      vertex 74.7 -28.39 1.6
    endloop
  endfacet
  facet normal 0 1 -0
    outer loop
      vertex 74.7 -28.39 9.15527e-006
      vertex 72.21 -28.39 1.6
      vertex 74.7 -28.39 1.6
    endloop
  endfacet
  facet normal 0 1 0
    outer loop
      vertex 72.21 -28.39 1.6
      vertex 74.7 -28.39 9.15527e-006
      vertex 72.21 -28.39 9.15527e-006
    endloop
  endfacet
  facet normal 0 -1 0
    outer loop
      vertex 72.21 -3.49 9.15527e-006
      vertex 74.7 -3.49 1.6
      vertex 72.21 -3.49 1.6
    endloop
  endfacet
  facet normal 0 -1 -0
    outer loop
      vertex 74.7 -3.49 1.6
      vertex 72.21 -3.49 9.15527e-006
      vertex 74.7 -3.49 9.15527e-006
    endloop
  endfacet
  facet normal 0 -1 0
    outer loop
      vertex 3.28999 -30.88 9.15527e-006
      vertex 77.19 -30.88 1.6
      vertex 2.48999 -30.88 1.6
    endloop
  endfacet
  facet normal 0 -1 0
    outer loop
      vertex 77.19 -30.88 1.6
      vertex 3.28999 -30.88 9.15527e-006
      vertex 76.39 -30.88 9.15527e-006
    endloop
  endfacet
  facet normal 0.894429 0 -0.44721
    outer loop
      vertex 77.19 -30.88 1.6
      vertex 76.39 -1 9.15527e-006
      vertex 77.19 -1 1.6
    endloop
  endfacet
  facet normal 0.894429 0 -0.44721
    outer loop
      vertex 76.39 -1 9.15527e-006
      vertex 77.19 -30.88 1.6
      vertex 76.39 -30.88 9.15527e-006
    endloop
  endfacet
  facet normal -0.894425 0 -0.447217
    outer loop
      vertex 3.28999 -30.88 9.15527e-006
      vertex 2.48999 -1 1.6
      vertex 3.28999 -1 9.15527e-006
    endloop
  endfacet
  facet normal -0.894425 -0 -0.447217
    outer loop
      vertex 2.48999 -1 1.6
      vertex 3.28999 -30.88 9.15527e-006
      vertex 2.48999 -30.88 1.6
    endloop
  endfacet
  facet normal 0 0 1
    outer loop
      vertex 77.19 -1 1.6
      vertex 74.7 -3.49 1.6
      vertex 77.19 -30.88 1.6
    endloop
  endfacet
  facet normal 0 0 1
    outer loop
      vertex 77.19 -1 1.6
      vertex 72.21 -3.49 1.6
      vertex 74.7 -3.49 1.6
    endloop
  endfacet
  facet normal 0 0 1
    outer loop
      vertex 72.21 -3.49 1.6
      vertex 67.23 -3.49 1.6
      vertex 72.21 -28.39 1.6
    endloop
  endfacet
  facet normal 0 0 1
    outer loop
      vertex 77.19 -1 1.6
      vertex 67.23 -3.49 1.6
      vertex 72.21 -3.49 1.6
    endloop
  endfacet
  facet normal 0 0 1
    outer loop
      vertex 77.19 -1 1.6
      vertex 64.74 -3.49 1.6
      vertex 67.23 -3.49 1.6
    endloop
  endfacet
  facet normal 0 0 1
    outer loop
      vertex 64.74 -3.49 1.6
      vertex 59.76 -3.49 1.6
      vertex 64.74 -28.39 1.6
    endloop
  endfacet
  facet normal 0 0 1
    outer loop
      vertex 77.19 -1 1.6
      vertex 59.76 -3.49 1.6
      vertex 64.74 -3.49 1.6
    endloop
  endfacet
  facet normal 0 0 1
    outer loop
      vertex 77.19 -1 1.6
      vertex 57.27 -3.49 1.6
      vertex 59.76 -3.49 1.6
    endloop
  endfacet
  facet normal 0 0 1
    outer loop
      vertex 57.27 -3.49 1.6
      vertex 52.29 -3.49 1.6
      vertex 57.27 -28.39 1.6
    endloop
  endfacet
  facet normal 0 0 1
    outer loop
      vertex 77.19 -1 1.6
      vertex 52.29 -3.49 1.6
      vertex 57.27 -3.49 1.6
    endloop
  endfacet
  facet normal 0 0 1
    outer loop
      vertex 77.19 -1 1.6
      vertex 49.8 -3.49 1.6
      vertex 52.29 -3.49 1.6
    endloop
  endfacet
  facet normal 0 0 1
    outer loop
      vertex 49.8 -3.49 1.6
      vertex 44.82 -3.49 1.6
      vertex 49.8 -28.39 1.6
    endloop
  endfacet
  facet normal 0 0 1
    outer loop
      vertex 77.19 -1 1.6
      vertex 44.82 -3.49 1.6
      vertex 49.8 -3.49 1.6
    endloop
  endfacet
  facet normal 0 0 1
    outer loop
      vertex 77.19 -1 1.6
      vertex 42.33 -3.49 1.6
      vertex 44.82 -3.49 1.6
    endloop
  endfacet
  facet normal 0 0 1
    outer loop
      vertex 42.33 -3.49 1.6
      vertex 37.35 -3.49 1.6
      vertex 42.33 -28.39 1.6
    endloop
  endfacet
  facet normal 0 0 1
    outer loop
      vertex 77.19 -1 1.6
      vertex 37.35 -3.49 1.6
      vertex 42.33 -3.49 1.6
    endloop
  endfacet
  facet normal -0 0 1
    outer loop
      vertex 2.48999 -1 1.6
      vertex 37.35 -3.49 1.6
      vertex 77.19 -1 1.6
    endloop
  endfacet
  facet normal 0 0 1
    outer loop
      vertex 34.86 -3.49 1.6
      vertex 29.88 -3.49 1.6
      vertex 34.86 -28.39 1.6
    endloop
  endfacet
  facet normal 0 0 1
    outer loop
      vertex 37.35 -3.49 1.6
      vertex 2.48999 -1 1.6
      vertex 34.86 -3.49 1.6
    endloop
  endfacet
  facet normal 0 0 1
    outer loop
      vertex 34.86 -3.49 1.6
      vertex 2.48999 -1 1.6
      vertex 29.88 -3.49 1.6
    endloop
  endfacet
  facet normal 0 0 1
    outer loop
      vertex 27.39 -3.49 1.6
      vertex 22.41 -3.49 1.6
      vertex 27.39 -28.39 1.6
    endloop
  endfacet
  facet normal 0 0 1
    outer loop
      vertex 29.88 -3.49 1.6
      vertex 2.48999 -1 1.6
      vertex 27.39 -3.49 1.6
    endloop
  endfacet
  facet normal 0 0 1
    outer loop
      vertex 27.39 -3.49 1.6
      vertex 2.48999 -1 1.6
      vertex 22.41 -3.49 1.6
    endloop
  endfacet
  facet normal 0 0 1
    outer loop
      vertex 19.92 -3.49 1.6
      vertex 14.94 -3.49 1.6
      vertex 19.92 -28.39 1.6
    endloop
  endfacet
  facet normal 0 0 1
    outer loop
      vertex 22.41 -3.49 1.6
      vertex 2.48999 -1 1.6
      vertex 19.92 -3.49 1.6
    endloop
  endfacet
  facet normal 0 0 1
    outer loop
      vertex 19.92 -3.49 1.6
      vertex 2.48999 -1 1.6
      vertex 14.94 -3.49 1.6
    endloop
  endfacet
  facet normal 0 0 1
    outer loop
      vertex 12.45 -3.49 1.6
      vertex 7.47 -3.49 1.6
      vertex 12.45 -28.39 1.6
    endloop
  endfacet
  facet normal 0 0 1
    outer loop
      vertex 14.94 -3.49 1.6
      vertex 2.48999 -1 1.6
      vertex 12.45 -3.49 1.6
    endloop
  endfacet
  facet normal 0 0 1
    outer loop
      vertex 12.45 -3.49 1.6
      vertex 2.48999 -1 1.6
      vertex 7.47 -3.49 1.6
    endloop
  endfacet
  facet normal 0 0 1
    outer loop
      vertex 4.98 -3.49 1.6
      vertex 2.48999 -1 1.6
      vertex 4.98 -28.39 1.6
    endloop
  endfacet
  facet normal 0 0 1
    outer loop
      vertex 7.47 -3.49 1.6
      vertex 2.48999 -1 1.6
      vertex 4.98 -3.49 1.6
    endloop
  endfacet
  facet normal -0 0 1
    outer loop
      vertex 74.7 -28.39 1.6
      vertex 77.19 -30.88 1.6
      vertex 74.7 -3.49 1.6
    endloop
  endfacet
  facet normal -0 0 1
    outer loop
      vertex 72.21 -28.39 1.6
      vertex 77.19 -30.88 1.6
      vertex 74.7 -28.39 1.6
    endloop
  endfacet
  facet normal 0 0 1
    outer loop
      vertex 67.23 -28.39 1.6
      vertex 72.21 -28.39 1.6
      vertex 67.23 -3.49 1.6
    endloop
  endfacet
  facet normal -0 0 1
    outer loop
      vertex 67.23 -28.39 1.6
      vertex 77.19 -30.88 1.6
      vertex 72.21 -28.39 1.6
    endloop
  endfacet
  facet normal -0 0 1
    outer loop
      vertex 64.74 -28.39 1.6
      vertex 77.19 -30.88 1.6
      vertex 67.23 -28.39 1.6
    endloop
  endfacet
  facet normal 0 0 1
    outer loop
      vertex 59.76 -28.39 1.6
      vertex 64.74 -28.39 1.6
      vertex 59.76 -3.49 1.6
    endloop
  endfacet
  facet normal -0 0 1
    outer loop
      vertex 59.76 -28.39 1.6
      vertex 77.19 -30.88 1.6
      vertex 64.74 -28.39 1.6
    endloop
  endfacet
  facet normal -0 0 1
    outer loop
      vertex 57.27 -28.39 1.6
      vertex 77.19 -30.88 1.6
      vertex 59.76 -28.39 1.6
    endloop
  endfacet
  facet normal 0 0 1
    outer loop
      vertex 52.29 -28.39 1.6
      vertex 57.27 -28.39 1.6
      vertex 52.29 -3.49 1.6
    endloop
  endfacet
  facet normal -0 0 1
    outer loop
      vertex 52.29 -28.39 1.6
      vertex 77.19 -30.88 1.6
      vertex 57.27 -28.39 1.6
    endloop
  endfacet
  facet normal -0 0 1
    outer loop
      vertex 49.8 -28.39 1.6
      vertex 77.19 -30.88 1.6
      vertex 52.29 -28.39 1.6
    endloop
  endfacet
  facet normal 0 0 1
    outer loop
      vertex 44.82 -28.39 1.6
      vertex 49.8 -28.39 1.6
      vertex 44.82 -3.49 1.6
    endloop
  endfacet
  facet normal -0 0 1
    outer loop
      vertex 44.82 -28.39 1.6
      vertex 77.19 -30.88 1.6
      vertex 49.8 -28.39 1.6
    endloop
  endfacet
  facet normal -0 0 1
    outer loop
      vertex 42.33 -28.39 1.6
      vertex 77.19 -30.88 1.6
      vertex 44.82 -28.39 1.6
    endloop
  endfacet
  facet normal 0 0 1
    outer loop
      vertex 37.35 -28.39 1.6
      vertex 42.33 -28.39 1.6
      vertex 37.35 -3.49 1.6
    endloop
  endfacet
  facet normal -0 0 1
    outer loop
      vertex 37.35 -28.39 1.6
      vertex 77.19 -30.88 1.6
      vertex 42.33 -28.39 1.6
    endloop
  endfacet
  facet normal 0 0 1
    outer loop
      vertex 2.48999 -30.88 1.6
      vertex 37.35 -28.39 1.6
      vertex 34.86 -28.39 1.6
    endloop
  endfacet
  facet normal 0 0 1
    outer loop
      vertex 29.88 -28.39 1.6
      vertex 34.86 -28.39 1.6
      vertex 29.88 -3.49 1.6
    endloop
  endfacet
  facet normal 0 0 1
    outer loop
      vertex 2.48999 -30.88 1.6
      vertex 34.86 -28.39 1.6
      vertex 29.88 -28.39 1.6
    endloop
  endfacet
  facet normal 0 0 1
    outer loop
      vertex 2.48999 -30.88 1.6
      vertex 29.88 -28.39 1.6
      vertex 27.39 -28.39 1.6
    endloop
  endfacet
  facet normal 0 0 1
    outer loop
      vertex 22.41 -28.39 1.6
      vertex 27.39 -28.39 1.6
      vertex 22.41 -3.49 1.6
    endloop
  endfacet
  facet normal 0 0 1
    outer loop
      vertex 2.48999 -30.88 1.6
      vertex 27.39 -28.39 1.6
      vertex 22.41 -28.39 1.6
    endloop
  endfacet
  facet normal 0 0 1
    outer loop
      vertex 2.48999 -30.88 1.6
      vertex 22.41 -28.39 1.6
      vertex 19.92 -28.39 1.6
    endloop
  endfacet
  facet normal 0 0 1
    outer loop
      vertex 14.94 -28.39 1.6
      vertex 19.92 -28.39 1.6
      vertex 14.94 -3.49 1.6
    endloop
  endfacet
  facet normal 0 0 1
    outer loop
      vertex 2.48999 -30.88 1.6
      vertex 19.92 -28.39 1.6
      vertex 14.94 -28.39 1.6
    endloop
  endfacet
  facet normal 0 0 1
    outer loop
      vertex 2.48999 -30.88 1.6
      vertex 14.94 -28.39 1.6
      vertex 12.45 -28.39 1.6
    endloop
  endfacet
  facet normal 0 0 1
    outer loop
      vertex 7.47 -28.39 1.6
      vertex 12.45 -28.39 1.6
      vertex 7.47 -3.49 1.6
    endloop
  endfacet
  facet normal 0 0 1
    outer loop
      vertex 2.48999 -30.88 1.6
      vertex 12.45 -28.39 1.6
      vertex 7.47 -28.39 1.6
    endloop
  endfacet
  facet normal 0 0 1
    outer loop
      vertex 2.48999 -30.88 1.6
      vertex 7.47 -28.39 1.6
      vertex 4.98 -28.39 1.6
    endloop
  endfacet
  facet normal 0 0 1
    outer loop
      vertex 37.35 -28.39 1.6
      vertex 2.48999 -30.88 1.6
      vertex 77.19 -30.88 1.6
    endloop
  endfacet
  facet normal 0 0 1
    outer loop
      vertex 2.48999 -30.88 1.6
      vertex 4.98 -28.39 1.6
      vertex 2.48999 -1 1.6
    endloop
  endfacet
  facet normal 0 1 -0
    outer loop
      vertex 76.39 -1 9.15527e-006
      vertex 2.48999 -1 1.6
      vertex 77.19 -1 1.6
    endloop
  endfacet
  facet normal 0 1 0
    outer loop
      vertex 2.48999 -1 1.6
      vertex 76.39 -1 9.15527e-006
      vertex 3.28999 -1 9.15527e-006
    endloop
  endfacet
  facet normal 0 0 -1
    outer loop
      vertex 76.39 -30.88 9.15527e-006
      vertex 74.7 -28.39 9.15527e-006
      vertex 76.39 -1 9.15527e-006
    endloop
  endfacet
  facet normal 0 0 -1
    outer loop
      vertex 76.39 -30.88 9.15527e-006
      vertex 72.21 -28.39 9.15527e-006
      vertex 74.7 -28.39 9.15527e-006
    endloop
  endfacet
  facet normal 0 0 -1
    outer loop
      vertex 72.21 -28.39 9.15527e-006
      vertex 67.23 -28.39 9.15527e-006
      vertex 72.21 -3.49 9.15527e-006
    endloop
  endfacet
  facet normal 0 0 -1
    outer loop
      vertex 76.39 -30.88 9.15527e-006
      vertex 67.23 -28.39 9.15527e-006
      vertex 72.21 -28.39 9.15527e-006
    endloop
  endfacet
  facet normal 0 0 -1
    outer loop
      vertex 76.39 -30.88 9.15527e-006
      vertex 64.74 -28.39 9.15527e-006
      vertex 67.23 -28.39 9.15527e-006
    endloop
  endfacet
  facet normal 0 0 -1
    outer loop
      vertex 64.74 -28.39 9.15527e-006
      vertex 59.76 -28.39 9.15527e-006
      vertex 64.74 -3.49 9.15527e-006
    endloop
  endfacet
  facet normal 0 0 -1
    outer loop
      vertex 76.39 -30.88 9.15527e-006
      vertex 59.76 -28.39 9.15527e-006
      vertex 64.74 -28.39 9.15527e-006
    endloop
  endfacet
  facet normal 0 0 -1
    outer loop
      vertex 76.39 -30.88 9.15527e-006
      vertex 57.27 -28.39 9.15527e-006
      vertex 59.76 -28.39 9.15527e-006
    endloop
  endfacet
  facet normal 0 0 -1
    outer loop
      vertex 57.27 -28.39 9.15527e-006
      vertex 52.29 -28.39 9.15527e-006
      vertex 57.27 -3.49 9.15527e-006
    endloop
  endfacet
  facet normal 0 0 -1
    outer loop
      vertex 76.39 -30.88 9.15527e-006
      vertex 52.29 -28.39 9.15527e-006
      vertex 57.27 -28.39 9.15527e-006
    endloop
  endfacet
  facet normal 0 0 -1
    outer loop
      vertex 76.39 -30.88 9.15527e-006
      vertex 49.8 -28.39 9.15527e-006
      vertex 52.29 -28.39 9.15527e-006
    endloop
  endfacet
  facet normal 0 0 -1
    outer loop
      vertex 49.8 -28.39 9.15527e-006
      vertex 44.82 -28.39 9.15527e-006
      vertex 49.8 -3.49 9.15527e-006
    endloop
  endfacet
  facet normal 0 0 -1
    outer loop
      vertex 76.39 -30.88 9.15527e-006
      vertex 44.82 -28.39 9.15527e-006
      vertex 49.8 -28.39 9.15527e-006
    endloop
  endfacet
  facet normal 0 0 -1
    outer loop
      vertex 76.39 -30.88 9.15527e-006
      vertex 42.33 -28.39 9.15527e-006
      vertex 44.82 -28.39 9.15527e-006
    endloop
  endfacet
  facet normal 0 0 -1
    outer loop
      vertex 42.33 -28.39 9.15527e-006
      vertex 37.35 -28.39 9.15527e-006
      vertex 42.33 -3.49 9.15527e-006
    endloop
  endfacet
  facet normal 0 0 -1
    outer loop
      vertex 76.39 -30.88 9.15527e-006
      vertex 37.35 -28.39 9.15527e-006
      vertex 42.33 -28.39 9.15527e-006
    endloop
  endfacet
  facet normal 0 0 -1
    outer loop
      vertex 3.28999 -30.88 9.15527e-006
      vertex 37.35 -28.39 9.15527e-006
      vertex 76.39 -30.88 9.15527e-006
    endloop
  endfacet
  facet normal 0 0 -1
    outer loop
      vertex 34.86 -28.39 9.15527e-006
      vertex 29.88 -28.39 9.15527e-006
      vertex 34.86 -3.49 9.15527e-006
    endloop
  endfacet
  facet normal -0 0 -1
    outer loop
      vertex 37.35 -28.39 9.15527e-006
      vertex 3.28999 -30.88 9.15527e-006
      vertex 34.86 -28.39 9.15527e-006
    endloop
  endfacet
  facet normal -0 0 -1
    outer loop
      vertex 34.86 -28.39 9.15527e-006
      vertex 3.28999 -30.88 9.15527e-006
      vertex 29.88 -28.39 9.15527e-006
    endloop
  endfacet
  facet normal 0 0 -1
    outer loop
      vertex 27.39 -28.39 9.15527e-006
      vertex 22.41 -28.39 9.15527e-006
      vertex 27.39 -3.49 9.15527e-006
    endloop
  endfacet
  facet normal -0 0 -1
    outer loop
      vertex 29.88 -28.39 9.15527e-006
      vertex 3.28999 -30.88 9.15527e-006
      vertex 27.39 -28.39 9.15527e-006
    endloop
  endfacet
  facet normal -0 0 -1
    outer loop
      vertex 27.39 -28.39 9.15527e-006
      vertex 3.28999 -30.88 9.15527e-006
      vertex 22.41 -28.39 9.15527e-006
    endloop
  endfacet
  facet normal 0 0 -1
    outer loop
      vertex 19.92 -28.39 9.15527e-006
      vertex 14.94 -28.39 9.15527e-006
      vertex 19.92 -3.49 9.15527e-006
    endloop
  endfacet
  facet normal -0 0 -1
    outer loop
      vertex 22.41 -28.39 9.15527e-006
      vertex 3.28999 -30.88 9.15527e-006
      vertex 19.92 -28.39 9.15527e-006
    endloop
  endfacet
  facet normal -0 0 -1
    outer loop
      vertex 19.92 -28.39 9.15527e-006
      vertex 3.28999 -30.88 9.15527e-006
      vertex 14.94 -28.39 9.15527e-006
    endloop
  endfacet
  facet normal 0 0 -1
    outer loop
      vertex 12.45 -28.39 9.15527e-006
      vertex 7.47 -28.39 9.15527e-006
      vertex 12.45 -3.49 9.15527e-006
    endloop
  endfacet
  facet normal -0 0 -1
    outer loop
      vertex 14.94 -28.39 9.15527e-006
      vertex 3.28999 -30.88 9.15527e-006
      vertex 12.45 -28.39 9.15527e-006
    endloop
  endfacet
  facet normal -0 0 -1
    outer loop
      vertex 12.45 -28.39 9.15527e-006
      vertex 3.28999 -30.88 9.15527e-006
      vertex 7.47 -28.39 9.15527e-006
    endloop
  endfacet
  facet normal -0 0 -1
    outer loop
      vertex 4.98 -28.39 9.15527e-006
      vertex 3.28999 -30.88 9.15527e-006
      vertex 4.98 -3.49 9.15527e-006
    endloop
  endfacet
  facet normal -0 0 -1
    outer loop
      vertex 7.47 -28.39 9.15527e-006
      vertex 3.28999 -30.88 9.15527e-006
      vertex 4.98 -28.39 9.15527e-006
    endloop
  endfacet
  facet normal 0 0 -1
    outer loop
      vertex 74.7 -3.49 9.15527e-006
      vertex 76.39 -1 9.15527e-006
      vertex 74.7 -28.39 9.15527e-006
    endloop
  endfacet
  facet normal 0 0 -1
    outer loop
      vertex 72.21 -3.49 9.15527e-006
      vertex 76.39 -1 9.15527e-006
      vertex 74.7 -3.49 9.15527e-006
    endloop
  endfacet
  facet normal 0 0 -1
    outer loop
      vertex 67.23 -3.49 9.15527e-006
      vertex 72.21 -3.49 9.15527e-006
      vertex 67.23 -28.39 9.15527e-006
    endloop
  endfacet
  facet normal 0 0 -1
    outer loop
      vertex 67.23 -3.49 9.15527e-006
      vertex 76.39 -1 9.15527e-006
      vertex 72.21 -3.49 9.15527e-006
    endloop
  endfacet
  facet normal 0 0 -1
    outer loop
      vertex 64.74 -3.49 9.15527e-006
      vertex 76.39 -1 9.15527e-006
      vertex 67.23 -3.49 9.15527e-006
    endloop
  endfacet
  facet normal 0 0 -1
    outer loop
      vertex 59.76 -3.49 9.15527e-006
      vertex 64.74 -3.49 9.15527e-006
      vertex 59.76 -28.39 9.15527e-006
    endloop
  endfacet
  facet normal 0 0 -1
    outer loop
      vertex 59.76 -3.49 9.15527e-006
      vertex 76.39 -1 9.15527e-006
      vertex 64.74 -3.49 9.15527e-006
    endloop
  endfacet
  facet normal 0 0 -1
    outer loop
      vertex 57.27 -3.49 9.15527e-006
      vertex 76.39 -1 9.15527e-006
      vertex 59.76 -3.49 9.15527e-006
    endloop
  endfacet
  facet normal 0 0 -1
    outer loop
      vertex 52.29 -3.49 9.15527e-006
      vertex 57.27 -3.49 9.15527e-006
      vertex 52.29 -28.39 9.15527e-006
    endloop
  endfacet
  facet normal 0 0 -1
    outer loop
      vertex 52.29 -3.49 9.15527e-006
      vertex 76.39 -1 9.15527e-006
      vertex 57.27 -3.49 9.15527e-006
    endloop
  endfacet
  facet normal 0 0 -1
    outer loop
      vertex 49.8 -3.49 9.15527e-006
      vertex 76.39 -1 9.15527e-006
      vertex 52.29 -3.49 9.15527e-006
    endloop
  endfacet
  facet normal 0 0 -1
    outer loop
      vertex 44.82 -3.49 9.15527e-006
      vertex 49.8 -3.49 9.15527e-006
      vertex 44.82 -28.39 9.15527e-006
    endloop
  endfacet
  facet normal 0 0 -1
    outer loop
      vertex 44.82 -3.49 9.15527e-006
      vertex 76.39 -1 9.15527e-006
      vertex 49.8 -3.49 9.15527e-006
    endloop
  endfacet
  facet normal 0 0 -1
    outer loop
      vertex 42.33 -3.49 9.15527e-006
      vertex 76.39 -1 9.15527e-006
      vertex 44.82 -3.49 9.15527e-006
    endloop
  endfacet
  facet normal 0 0 -1
    outer loop
      vertex 37.35 -3.49 9.15527e-006
      vertex 42.33 -3.49 9.15527e-006
      vertex 37.35 -28.39 9.15527e-006
    endloop
  endfacet
  facet normal 0 0 -1
    outer loop
      vertex 37.35 -3.49 9.15527e-006
      vertex 76.39 -1 9.15527e-006
      vertex 42.33 -3.49 9.15527e-006
    endloop
  endfacet
  facet normal 0 0 -1
    outer loop
      vertex 3.28999 -1 9.15527e-006
      vertex 37.35 -3.49 9.15527e-006
      vertex 34.86 -3.49 9.15527e-006
    endloop
  endfacet
  facet normal 0 0 -1
    outer loop
      vertex 29.88 -3.49 9.15527e-006
      vertex 34.86 -3.49 9.15527e-006
      vertex 29.88 -28.39 9.15527e-006
    endloop
  endfacet
  facet normal 0 0 -1
    outer loop
      vertex 3.28999 -1 9.15527e-006
      vertex 34.86 -3.49 9.15527e-006
      vertex 29.88 -3.49 9.15527e-006
    endloop
  endfacet
  facet normal 0 0 -1
    outer loop
      vertex 3.28999 -1 9.15527e-006
      vertex 29.88 -3.49 9.15527e-006
      vertex 27.39 -3.49 9.15527e-006
    endloop
  endfacet
  facet normal 0 0 -1
    outer loop
      vertex 22.41 -3.49 9.15527e-006
      vertex 27.39 -3.49 9.15527e-006
      vertex 22.41 -28.39 9.15527e-006
    endloop
  endfacet
  facet normal 0 0 -1
    outer loop
      vertex 3.28999 -1 9.15527e-006
      vertex 27.39 -3.49 9.15527e-006
      vertex 22.41 -3.49 9.15527e-006
    endloop
  endfacet
  facet normal 0 0 -1
    outer loop
      vertex 3.28999 -1 9.15527e-006
      vertex 22.41 -3.49 9.15527e-006
      vertex 19.92 -3.49 9.15527e-006
    endloop
  endfacet
  facet normal 0 0 -1
    outer loop
      vertex 14.94 -3.49 9.15527e-006
      vertex 19.92 -3.49 9.15527e-006
      vertex 14.94 -28.39 9.15527e-006
    endloop
  endfacet
  facet normal 0 0 -1
    outer loop
      vertex 3.28999 -1 9.15527e-006
      vertex 19.92 -3.49 9.15527e-006
      vertex 14.94 -3.49 9.15527e-006
    endloop
  endfacet
  facet normal 0 0 -1
    outer loop
      vertex 3.28999 -1 9.15527e-006
      vertex 14.94 -3.49 9.15527e-006
      vertex 12.45 -3.49 9.15527e-006
    endloop
  endfacet
  facet normal 0 0 -1
    outer loop
      vertex 7.47 -3.49 9.15527e-006
      vertex 12.45 -3.49 9.15527e-006
      vertex 7.47 -28.39 9.15527e-006
    endloop
  endfacet
  facet normal 0 0 -1
    outer loop
      vertex 3.28999 -1 9.15527e-006
      vertex 12.45 -3.49 9.15527e-006
      vertex 7.47 -3.49 9.15527e-006
    endloop
  endfacet
  facet normal 0 0 -1
    outer loop
      vertex 3.28999 -1 9.15527e-006
      vertex 7.47 -3.49 9.15527e-006
      vertex 4.98 -3.49 9.15527e-006
    endloop
  endfacet
  facet normal 0 0 -1
    outer loop
      vertex 37.35 -3.49 9.15527e-006
      vertex 3.28999 -1 9.15527e-006
      vertex 76.39 -1 9.15527e-006
    endloop
  endfacet
  facet normal 0 0 -1
    outer loop
      vertex 3.28999 -1 9.15527e-006
      vertex 4.98 -3.49 9.15527e-006
      vertex 3.28999 -30.88 9.15527e-006
    endloop
  endfacet
  facet normal 1 -0 0
    outer loop
      vertex 3.98 -70.39 1.6
      vertex 3.98 -33.37 9.15527e-006
      vertex 3.98 -33.37 1.6
    endloop
  endfacet
  facet normal 1 0 0
    outer loop
      vertex 3.98 -33.37 9.15527e-006
      vertex 3.98 -70.39 1.6
      vertex 3.98 -70.39 9.15527e-006
    endloop
  endfacet
  facet normal -1 0 0
    outer loop
      vertex 8.47 -70.39 9.15527e-006
      vertex 8.47 -33.37 1.6
      vertex 8.47 -33.37 9.15527e-006
    endloop
  endfacet
  facet normal -1 -0 0
    outer loop
      vertex 8.47 -33.37 1.6
      vertex 8.47 -70.39 9.15527e-006
      vertex 8.47 -70.39 1.6
    endloop
  endfacet
  facet normal 0 1 -0
    outer loop
      vertex 8.47 -70.39 9.15527e-006
      vertex 3.98 -70.39 1.6
      vertex 8.47 -70.39 1.6
    endloop
  endfacet
  facet normal 0 1 0
    outer loop
      vertex 3.98 -70.39 1.6
      vertex 8.47 -70.39 9.15527e-006
      vertex 3.98 -70.39 9.15527e-006
    endloop
  endfacet
  facet normal 0 -1 0
    outer loop
      vertex 3.98 -33.37 9.15527e-006
      vertex 8.47 -33.37 1.6
      vertex 3.98 -33.37 1.6
    endloop
  endfacet
  facet normal 0 -1 -0
    outer loop
      vertex 8.47 -33.37 1.6
      vertex 3.98 -33.37 9.15527e-006
      vertex 8.47 -33.37 9.15527e-006
    endloop
  endfacet
  facet normal 1 -0 0
    outer loop
      vertex 11.45 -70.39 1.6
      vertex 11.45 -33.37 9.15527e-006
      vertex 11.45 -33.37 1.6
    endloop
  endfacet
  facet normal 1 0 0
    outer loop
      vertex 11.45 -33.37 9.15527e-006
      vertex 11.45 -70.39 1.6
      vertex 11.45 -70.39 9.15527e-006
    endloop
  endfacet
  facet normal -1 0 0
    outer loop
      vertex 15.94 -70.39 9.15527e-006
      vertex 15.94 -33.37 1.6
      vertex 15.94 -33.37 9.15527e-006
    endloop
  endfacet
  facet normal -1 -0 0
    outer loop
      vertex 15.94 -33.37 1.6
      vertex 15.94 -70.39 9.15527e-006
      vertex 15.94 -70.39 1.6
    endloop
  endfacet
  facet normal 0 1 -0
    outer loop
      vertex 15.94 -70.39 9.15527e-006
      vertex 11.45 -70.39 1.6
      vertex 15.94 -70.39 1.6
    endloop
  endfacet
  facet normal 0 1 0
    outer loop
      vertex 11.45 -70.39 1.6
      vertex 15.94 -70.39 9.15527e-006
      vertex 11.45 -70.39 9.15527e-006
    endloop
  endfacet
  facet normal 0 -1 0
    outer loop
      vertex 11.45 -33.37 9.15527e-006
      vertex 15.94 -33.37 1.6
      vertex 11.45 -33.37 1.6
    endloop
  endfacet
  facet normal 0 -1 -0
    outer loop
      vertex 15.94 -33.37 1.6
      vertex 11.45 -33.37 9.15527e-006
      vertex 15.94 -33.37 9.15527e-006
    endloop
  endfacet
  facet normal 1 -0 0
    outer loop
      vertex 18.92 -70.39 1.6
      vertex 18.92 -33.37 9.15527e-006
      vertex 18.92 -33.37 1.6
    endloop
  endfacet
  facet normal 1 0 0
    outer loop
      vertex 18.92 -33.37 9.15527e-006
      vertex 18.92 -70.39 1.6
      vertex 18.92 -70.39 9.15527e-006
    endloop
  endfacet
  facet normal -1 0 0
    outer loop
      vertex 23.41 -70.39 9.15527e-006
      vertex 23.41 -33.37 1.6
      vertex 23.41 -33.37 9.15527e-006
    endloop
  endfacet
  facet normal -1 -0 0
    outer loop
      vertex 23.41 -33.37 1.6
      vertex 23.41 -70.39 9.15527e-006
      vertex 23.41 -70.39 1.6
    endloop
  endfacet
  facet normal 0 -1 0
    outer loop
      vertex 18.92 -33.37 9.15527e-006
      vertex 23.41 -33.37 1.6
      vertex 18.92 -33.37 1.6
    endloop
  endfacet
  facet normal 0 -1 -0
    outer loop
      vertex 23.41 -33.37 1.6
      vertex 18.92 -33.37 9.15527e-006
      vertex 23.41 -33.37 9.15527e-006
    endloop
  endfacet
  facet normal 0 1 -0
    outer loop
      vertex 23.41 -70.39 9.15527e-006
      vertex 18.92 -70.39 1.6
      vertex 23.41 -70.39 1.6
    endloop
  endfacet
  facet normal 0 1 0
    outer loop
      vertex 18.92 -70.39 1.6
      vertex 23.41 -70.39 9.15527e-006
      vertex 18.92 -70.39 9.15527e-006
    endloop
  endfacet
  facet normal 1 -0 0
    outer loop
      vertex 26.39 -70.39 1.6
      vertex 26.39 -33.37 9.15527e-006
      vertex 26.39 -33.37 1.6
    endloop
  endfacet
  facet normal 1 0 0
    outer loop
      vertex 26.39 -33.37 9.15527e-006
      vertex 26.39 -70.39 1.6
      vertex 26.39 -70.39 9.15527e-006
    endloop
  endfacet
  facet normal -1 0 0
    outer loop
      vertex 30.88 -70.39 9.15527e-006
      vertex 30.88 -33.37 1.6
      vertex 30.88 -33.37 9.15527e-006
    endloop
  endfacet
  facet normal -1 -0 0
    outer loop
      vertex 30.88 -33.37 1.6
      vertex 30.88 -70.39 9.15527e-006
      vertex 30.88 -70.39 1.6
    endloop
  endfacet
  facet normal 0 1 -0
    outer loop
      vertex 30.88 -70.39 9.15527e-006
      vertex 26.39 -70.39 1.6
      vertex 30.88 -70.39 1.6
    endloop
  endfacet
  facet normal 0 1 0
    outer loop
      vertex 26.39 -70.39 1.6
      vertex 30.88 -70.39 9.15527e-006
      vertex 26.39 -70.39 9.15527e-006
    endloop
  endfacet
  facet normal 0 -1 0
    outer loop
      vertex 26.39 -33.37 9.15527e-006
      vertex 30.88 -33.37 1.6
      vertex 26.39 -33.37 1.6
    endloop
  endfacet
  facet normal 0 -1 -0
    outer loop
      vertex 30.88 -33.37 1.6
      vertex 26.39 -33.37 9.15527e-006
      vertex 30.88 -33.37 9.15527e-006
    endloop
  endfacet
  facet normal 1 -0 0
    outer loop
      vertex 33.86 -70.39 1.6
      vertex 33.86 -33.37 9.15527e-006
      vertex 33.86 -33.37 1.6
    endloop
  endfacet
  facet normal 1 0 0
    outer loop
      vertex 33.86 -33.37 9.15527e-006
      vertex 33.86 -70.39 1.6
      vertex 33.86 -70.39 9.15527e-006
    endloop
  endfacet
  facet normal -1 0 0
    outer loop
      vertex 38.35 -70.39 9.15527e-006
      vertex 38.35 -33.37 1.6
      vertex 38.35 -33.37 9.15527e-006
    endloop
  endfacet
  facet normal -1 -0 0
    outer loop
      vertex 38.35 -33.37 1.6
      vertex 38.35 -70.39 9.15527e-006
      vertex 38.35 -70.39 1.6
    endloop
  endfacet
  facet normal 0 -1 0
    outer loop
      vertex 33.86 -33.37 9.15527e-006
      vertex 38.35 -33.37 1.6
      vertex 33.86 -33.37 1.6
    endloop
  endfacet
  facet normal 0 -1 -0
    outer loop
      vertex 38.35 -33.37 1.6
      vertex 33.86 -33.37 9.15527e-006
      vertex 38.35 -33.37 9.15527e-006
    endloop
  endfacet
  facet normal 0 1 -0
    outer loop
      vertex 38.35 -70.39 9.15527e-006
      vertex 33.86 -70.39 1.6
      vertex 38.35 -70.39 1.6
    endloop
  endfacet
  facet normal 0 1 0
    outer loop
      vertex 33.86 -70.39 1.6
      vertex 38.35 -70.39 9.15527e-006
      vertex 33.86 -70.39 9.15527e-006
    endloop
  endfacet
  facet normal 1 -0 0
    outer loop
      vertex 41.33 -70.39 1.6
      vertex 41.33 -33.37 9.15527e-006
      vertex 41.33 -33.37 1.6
    endloop
  endfacet
  facet normal 1 0 0
    outer loop
      vertex 41.33 -33.37 9.15527e-006
      vertex 41.33 -70.39 1.6
      vertex 41.33 -70.39 9.15527e-006
    endloop
  endfacet
  facet normal -1 0 0
    outer loop
      vertex 45.82 -70.39 9.15527e-006
      vertex 45.82 -33.37 1.6
      vertex 45.82 -33.37 9.15527e-006
    endloop
  endfacet
  facet normal -1 -0 0
    outer loop
      vertex 45.82 -33.37 1.6
      vertex 45.82 -70.39 9.15527e-006
      vertex 45.82 -70.39 1.6
    endloop
  endfacet
  facet normal 0 1 -0
    outer loop
      vertex 45.82 -70.39 9.15527e-006
      vertex 41.33 -70.39 1.6
      vertex 45.82 -70.39 1.6
    endloop
  endfacet
  facet normal 0 1 0
    outer loop
      vertex 41.33 -70.39 1.6
      vertex 45.82 -70.39 9.15527e-006
      vertex 41.33 -70.39 9.15527e-006
    endloop
  endfacet
  facet normal 0 -1 0
    outer loop
      vertex 41.33 -33.37 9.15527e-006
      vertex 45.82 -33.37 1.6
      vertex 41.33 -33.37 1.6
    endloop
  endfacet
  facet normal 0 -1 -0
    outer loop
      vertex 45.82 -33.37 1.6
      vertex 41.33 -33.37 9.15527e-006
      vertex 45.82 -33.37 9.15527e-006
    endloop
  endfacet
  facet normal 1 -0 0
    outer loop
      vertex 48.8 -70.39 1.6
      vertex 48.8 -33.37 9.15527e-006
      vertex 48.8 -33.37 1.6
    endloop
  endfacet
  facet normal 1 0 0
    outer loop
      vertex 48.8 -33.37 9.15527e-006
      vertex 48.8 -70.39 1.6
      vertex 48.8 -70.39 9.15527e-006
    endloop
  endfacet
  facet normal -1 0 0
    outer loop
      vertex 53.29 -70.39 9.15527e-006
      vertex 53.29 -33.37 1.6
      vertex 53.29 -33.37 9.15527e-006
    endloop
  endfacet
  facet normal -1 -0 0
    outer loop
      vertex 53.29 -33.37 1.6
      vertex 53.29 -70.39 9.15527e-006
      vertex 53.29 -70.39 1.6
    endloop
  endfacet
  facet normal 0 1 -0
    outer loop
      vertex 53.29 -70.39 9.15527e-006
      vertex 48.8 -70.39 1.6
      vertex 53.29 -70.39 1.6
    endloop
  endfacet
  facet normal 0 1 0
    outer loop
      vertex 48.8 -70.39 1.6
      vertex 53.29 -70.39 9.15527e-006
      vertex 48.8 -70.39 9.15527e-006
    endloop
  endfacet
  facet normal 0 -1 0
    outer loop
      vertex 48.8 -33.37 9.15527e-006
      vertex 53.29 -33.37 1.6
      vertex 48.8 -33.37 1.6
    endloop
  endfacet
  facet normal 0 -1 -0
    outer loop
      vertex 53.29 -33.37 1.6
      vertex 48.8 -33.37 9.15527e-006
      vertex 53.29 -33.37 9.15527e-006
    endloop
  endfacet
  facet normal 1 -0 0
    outer loop
      vertex 56.27 -70.39 1.6
      vertex 56.27 -33.37 9.15527e-006
      vertex 56.27 -33.37 1.6
    endloop
  endfacet
  facet normal 1 0 0
    outer loop
      vertex 56.27 -33.37 9.15527e-006
      vertex 56.27 -70.39 1.6
      vertex 56.27 -70.39 9.15527e-006
    endloop
  endfacet
  facet normal -1 0 0
    outer loop
      vertex 60.76 -70.39 9.15527e-006
      vertex 60.76 -33.37 1.6
      vertex 60.76 -33.37 9.15527e-006
    endloop
  endfacet
  facet normal -1 -0 0
    outer loop
      vertex 60.76 -33.37 1.6
      vertex 60.76 -70.39 9.15527e-006
      vertex 60.76 -70.39 1.6
    endloop
  endfacet
  facet normal 0 -1 0
    outer loop
      vertex 56.27 -33.37 9.15527e-006
      vertex 60.76 -33.37 1.6
      vertex 56.27 -33.37 1.6
    endloop
  endfacet
  facet normal 0 -1 -0
    outer loop
      vertex 60.76 -33.37 1.6
      vertex 56.27 -33.37 9.15527e-006
      vertex 60.76 -33.37 9.15527e-006
    endloop
  endfacet
  facet normal 0 1 -0
    outer loop
      vertex 60.76 -70.39 9.15527e-006
      vertex 56.27 -70.39 1.6
      vertex 60.76 -70.39 1.6
    endloop
  endfacet
  facet normal 0 1 0
    outer loop
      vertex 56.27 -70.39 1.6
      vertex 60.76 -70.39 9.15527e-006
      vertex 56.27 -70.39 9.15527e-006
    endloop
  endfacet
  facet normal 1 -0 0
    outer loop
      vertex 63.74 -70.39 1.6
      vertex 63.74 -33.37 9.15527e-006
      vertex 63.74 -33.37 1.6
    endloop
  endfacet
  facet normal 1 0 0
    outer loop
      vertex 63.74 -33.37 9.15527e-006
      vertex 63.74 -70.39 1.6
      vertex 63.74 -70.39 9.15527e-006
    endloop
  endfacet
  facet normal -1 0 0
    outer loop
      vertex 68.23 -70.39 9.15527e-006
      vertex 68.23 -33.37 1.6
      vertex 68.23 -33.37 9.15527e-006
    endloop
  endfacet
  facet normal -1 -0 0
    outer loop
      vertex 68.23 -33.37 1.6
      vertex 68.23 -70.39 9.15527e-006
      vertex 68.23 -70.39 1.6
    endloop
  endfacet
  facet normal 0 -1 0
    outer loop
      vertex 63.74 -33.37 9.15527e-006
      vertex 68.23 -33.37 1.6
      vertex 63.74 -33.37 1.6
    endloop
  endfacet
  facet normal 0 -1 -0
    outer loop
      vertex 68.23 -33.37 1.6
      vertex 63.74 -33.37 9.15527e-006
      vertex 68.23 -33.37 9.15527e-006
    endloop
  endfacet
  facet normal 0 1 -0
    outer loop
      vertex 68.23 -70.39 9.15527e-006
      vertex 63.74 -70.39 1.6
      vertex 68.23 -70.39 1.6
    endloop
  endfacet
  facet normal 0 1 0
    outer loop
      vertex 63.74 -70.39 1.6
      vertex 68.23 -70.39 9.15527e-006
      vertex 63.74 -70.39 9.15527e-006
    endloop
  endfacet
  facet normal 1 -0 0
    outer loop
      vertex 71.21 -70.39 1.6
      vertex 71.21 -33.37 9.15527e-006
      vertex 71.21 -33.37 1.6
    endloop
  endfacet
  facet normal 1 0 0
    outer loop
      vertex 71.21 -33.37 9.15527e-006
      vertex 71.21 -70.39 1.6
      vertex 71.21 -70.39 9.15527e-006
    endloop
  endfacet
  facet normal -1 0 0
    outer loop
      vertex 75.7 -70.39 9.15527e-006
      vertex 75.7 -33.37 1.6
      vertex 75.7 -33.37 9.15527e-006
    endloop
  endfacet
  facet normal -1 -0 0
    outer loop
      vertex 75.7 -33.37 1.6
      vertex 75.7 -70.39 9.15527e-006
      vertex 75.7 -70.39 1.6
    endloop
  endfacet
  facet normal 0 1 -0
    outer loop
      vertex 75.7 -70.39 9.15527e-006
      vertex 71.21 -70.39 1.6
      vertex 75.7 -70.39 1.6
    endloop
  endfacet
  facet normal 0 1 0
    outer loop
      vertex 71.21 -70.39 1.6
      vertex 75.7 -70.39 9.15527e-006
      vertex 71.21 -70.39 9.15527e-006
    endloop
  endfacet
  facet normal 0 -1 0
    outer loop
      vertex 71.21 -33.37 9.15527e-006
      vertex 75.7 -33.37 1.6
      vertex 71.21 -33.37 1.6
    endloop
  endfacet
  facet normal 0 -1 -0
    outer loop
      vertex 75.7 -33.37 1.6
      vertex 71.21 -33.37 9.15527e-006
      vertex 75.7 -33.37 9.15527e-006
    endloop
  endfacet
  facet normal 0 -1 0
    outer loop
      vertex 3.28999 -71.88 9.15527e-006
      vertex 77.19 -71.88 1.6
      vertex 2.48999 -71.88 1.6
    endloop
  endfacet
  facet normal 0 -1 0
    outer loop
      vertex 77.19 -71.88 1.6
      vertex 3.28999 -71.88 9.15527e-006
      vertex 76.39 -71.88 9.15527e-006
    endloop
  endfacet
  facet normal 0.894429 0 -0.44721
    outer loop
      vertex 77.19 -71.88 1.6
      vertex 76.39 -31.88 9.15527e-006
      vertex 77.19 -31.88 1.6
    endloop
  endfacet
  facet normal 0.894429 0 -0.44721
    outer loop
      vertex 76.39 -31.88 9.15527e-006
      vertex 77.19 -71.88 1.6
      vertex 76.39 -71.88 9.15527e-006
    endloop
  endfacet
  facet normal -0.894425 0 -0.447217
    outer loop
      vertex 3.28999 -71.88 9.15527e-006
      vertex 2.48999 -31.88 1.6
      vertex 3.28999 -31.88 9.15527e-006
    endloop
  endfacet
  facet normal -0.894425 -0 -0.447217
    outer loop
      vertex 2.48999 -31.88 1.6
      vertex 3.28999 -71.88 9.15527e-006
      vertex 2.48999 -71.88 1.6
    endloop
  endfacet
  facet normal 0 0 1
    outer loop
      vertex 77.19 -31.88 1.6
      vertex 75.7 -33.37 1.6
      vertex 77.19 -71.88 1.6
    endloop
  endfacet
  facet normal 0 0 1
    outer loop
      vertex 77.19 -31.88 1.6
      vertex 71.21 -33.37 1.6
      vertex 75.7 -33.37 1.6
    endloop
  endfacet
  facet normal 0 0 1
    outer loop
      vertex 71.21 -33.37 1.6
      vertex 68.23 -33.37 1.6
      vertex 71.21 -70.39 1.6
    endloop
  endfacet
  facet normal 0 0 1
    outer loop
      vertex 77.19 -31.88 1.6
      vertex 68.23 -33.37 1.6
      vertex 71.21 -33.37 1.6
    endloop
  endfacet
  facet normal 0 0 1
    outer loop
      vertex 77.19 -31.88 1.6
      vertex 63.74 -33.37 1.6
      vertex 68.23 -33.37 1.6
    endloop
  endfacet
  facet normal 0 0 1
    outer loop
      vertex 63.74 -33.37 1.6
      vertex 60.76 -33.37 1.6
      vertex 63.74 -70.39 1.6
    endloop
  endfacet
  facet normal 0 0 1
    outer loop
      vertex 77.19 -31.88 1.6
      vertex 60.76 -33.37 1.6
      vertex 63.74 -33.37 1.6
    endloop
  endfacet
  facet normal 0 0 1
    outer loop
      vertex 77.19 -31.88 1.6
      vertex 56.27 -33.37 1.6
      vertex 60.76 -33.37 1.6
    endloop
  endfacet
  facet normal 0 0 1
    outer loop
      vertex 56.27 -33.37 1.6
      vertex 53.29 -33.37 1.6
      vertex 56.27 -70.39 1.6
    endloop
  endfacet
  facet normal 0 0 1
    outer loop
      vertex 77.19 -31.88 1.6
      vertex 53.29 -33.37 1.6
      vertex 56.27 -33.37 1.6
    endloop
  endfacet
  facet normal 0 0 1
    outer loop
      vertex 77.19 -31.88 1.6
      vertex 48.8 -33.37 1.6
      vertex 53.29 -33.37 1.6
    endloop
  endfacet
  facet normal 0 0 1
    outer loop
      vertex 48.8 -33.37 1.6
      vertex 45.82 -33.37 1.6
      vertex 48.8 -70.39 1.6
    endloop
  endfacet
  facet normal 0 0 1
    outer loop
      vertex 77.19 -31.88 1.6
      vertex 45.82 -33.37 1.6
      vertex 48.8 -33.37 1.6
    endloop
  endfacet
  facet normal 0 0 1
    outer loop
      vertex 77.19 -31.88 1.6
      vertex 41.33 -33.37 1.6
      vertex 45.82 -33.37 1.6
    endloop
  endfacet
  facet normal 0 0 1
    outer loop
      vertex 41.33 -33.37 1.6
      vertex 38.35 -33.37 1.6
      vertex 41.33 -70.39 1.6
    endloop
  endfacet
  facet normal 0 0 1
    outer loop
      vertex 77.19 -31.88 1.6
      vertex 38.35 -33.37 1.6
      vertex 41.33 -33.37 1.6
    endloop
  endfacet
  facet normal 0 0 1
    outer loop
      vertex 77.19 -31.88 1.6
      vertex 33.86 -33.37 1.6
      vertex 38.35 -33.37 1.6
    endloop
  endfacet
  facet normal 0 0 1
    outer loop
      vertex 33.86 -33.37 1.6
      vertex 30.88 -33.37 1.6
      vertex 33.86 -70.39 1.6
    endloop
  endfacet
  facet normal -0 0 1
    outer loop
      vertex 2.48999 -31.88 1.6
      vertex 33.86 -33.37 1.6
      vertex 77.19 -31.88 1.6
    endloop
  endfacet
  facet normal 0 0 1
    outer loop
      vertex 33.86 -33.37 1.6
      vertex 2.48999 -31.88 1.6
      vertex 30.88 -33.37 1.6
    endloop
  endfacet
  facet normal 0 0 1
    outer loop
      vertex 26.39 -33.37 1.6
      vertex 23.41 -33.37 1.6
      vertex 26.39 -70.39 1.6
    endloop
  endfacet
  facet normal 0 0 1
    outer loop
      vertex 30.88 -33.37 1.6
      vertex 2.48999 -31.88 1.6
      vertex 26.39 -33.37 1.6
    endloop
  endfacet
  facet normal 0 0 1
    outer loop
      vertex 26.39 -33.37 1.6
      vertex 2.48999 -31.88 1.6
      vertex 23.41 -33.37 1.6
    endloop
  endfacet
  facet normal 0 0 1
    outer loop
      vertex 18.92 -33.37 1.6
      vertex 15.94 -33.37 1.6
      vertex 18.92 -70.39 1.6
    endloop
  endfacet
  facet normal 0 0 1
    outer loop
      vertex 23.41 -33.37 1.6
      vertex 2.48999 -31.88 1.6
      vertex 18.92 -33.37 1.6
    endloop
  endfacet
  facet normal 0 0 1
    outer loop
      vertex 18.92 -33.37 1.6
      vertex 2.48999 -31.88 1.6
      vertex 15.94 -33.37 1.6
    endloop
  endfacet
  facet normal 0 0 1
    outer loop
      vertex 11.45 -33.37 1.6
      vertex 8.47 -33.37 1.6
      vertex 11.45 -70.39 1.6
    endloop
  endfacet
  facet normal 0 0 1
    outer loop
      vertex 15.94 -33.37 1.6
      vertex 2.48999 -31.88 1.6
      vertex 11.45 -33.37 1.6
    endloop
  endfacet
  facet normal 0 0 1
    outer loop
      vertex 11.45 -33.37 1.6
      vertex 2.48999 -31.88 1.6
      vertex 8.47 -33.37 1.6
    endloop
  endfacet
  facet normal 0 0 1
    outer loop
      vertex 3.98 -33.37 1.6
      vertex 2.48999 -31.88 1.6
      vertex 3.98 -70.39 1.6
    endloop
  endfacet
  facet normal 0 0 1
    outer loop
      vertex 8.47 -33.37 1.6
      vertex 2.48999 -31.88 1.6
      vertex 3.98 -33.37 1.6
    endloop
  endfacet
  facet normal -0 0 1
    outer loop
      vertex 75.7 -70.39 1.6
      vertex 77.19 -71.88 1.6
      vertex 75.7 -33.37 1.6
    endloop
  endfacet
  facet normal -0 0 1
    outer loop
      vertex 71.21 -70.39 1.6
      vertex 77.19 -71.88 1.6
      vertex 75.7 -70.39 1.6
    endloop
  endfacet
  facet normal 0 0 1
    outer loop
      vertex 68.23 -70.39 1.6
      vertex 71.21 -70.39 1.6
      vertex 68.23 -33.37 1.6
    endloop
  endfacet
  facet normal -0 0 1
    outer loop
      vertex 68.23 -70.39 1.6
      vertex 77.19 -71.88 1.6
      vertex 71.21 -70.39 1.6
    endloop
  endfacet
  facet normal -0 0 1
    outer loop
      vertex 63.74 -70.39 1.6
      vertex 77.19 -71.88 1.6
      vertex 68.23 -70.39 1.6
    endloop
  endfacet
  facet normal 0 0 1
    outer loop
      vertex 60.76 -70.39 1.6
      vertex 63.74 -70.39 1.6
      vertex 60.76 -33.37 1.6
    endloop
  endfacet
  facet normal -0 0 1
    outer loop
      vertex 60.76 -70.39 1.6
      vertex 77.19 -71.88 1.6
      vertex 63.74 -70.39 1.6
    endloop
  endfacet
  facet normal -0 0 1
    outer loop
      vertex 56.27 -70.39 1.6
      vertex 77.19 -71.88 1.6
      vertex 60.76 -70.39 1.6
    endloop
  endfacet
  facet normal 0 0 1
    outer loop
      vertex 53.29 -70.39 1.6
      vertex 56.27 -70.39 1.6
      vertex 53.29 -33.37 1.6
    endloop
  endfacet
  facet normal -0 0 1
    outer loop
      vertex 53.29 -70.39 1.6
      vertex 77.19 -71.88 1.6
      vertex 56.27 -70.39 1.6
    endloop
  endfacet
  facet normal -0 0 1
    outer loop
      vertex 48.8 -70.39 1.6
      vertex 77.19 -71.88 1.6
      vertex 53.29 -70.39 1.6
    endloop
  endfacet
  facet normal 0 0 1
    outer loop
      vertex 45.82 -70.39 1.6
      vertex 48.8 -70.39 1.6
      vertex 45.82 -33.37 1.6
    endloop
  endfacet
  facet normal -0 0 1
    outer loop
      vertex 45.82 -70.39 1.6
      vertex 77.19 -71.88 1.6
      vertex 48.8 -70.39 1.6
    endloop
  endfacet
  facet normal -0 0 1
    outer loop
      vertex 41.33 -70.39 1.6
      vertex 77.19 -71.88 1.6
      vertex 45.82 -70.39 1.6
    endloop
  endfacet
  facet normal 0 0 1
    outer loop
      vertex 38.35 -70.39 1.6
      vertex 41.33 -70.39 1.6
      vertex 38.35 -33.37 1.6
    endloop
  endfacet
  facet normal -0 0 1
    outer loop
      vertex 38.35 -70.39 1.6
      vertex 77.19 -71.88 1.6
      vertex 41.33 -70.39 1.6
    endloop
  endfacet
  facet normal -0 0 1
    outer loop
      vertex 33.86 -70.39 1.6
      vertex 77.19 -71.88 1.6
      vertex 38.35 -70.39 1.6
    endloop
  endfacet
  facet normal 0 0 1
    outer loop
      vertex 30.88 -70.39 1.6
      vertex 33.86 -70.39 1.6
      vertex 30.88 -33.37 1.6
    endloop
  endfacet
  facet normal 0 0 1
    outer loop
      vertex 2.48999 -71.88 1.6
      vertex 33.86 -70.39 1.6
      vertex 30.88 -70.39 1.6
    endloop
  endfacet
  facet normal 0 0 1
    outer loop
      vertex 2.48999 -71.88 1.6
      vertex 30.88 -70.39 1.6
      vertex 26.39 -70.39 1.6
    endloop
  endfacet
  facet normal 0 0 1
    outer loop
      vertex 23.41 -70.39 1.6
      vertex 26.39 -70.39 1.6
      vertex 23.41 -33.37 1.6
    endloop
  endfacet
  facet normal 0 0 1
    outer loop
      vertex 2.48999 -71.88 1.6
      vertex 26.39 -70.39 1.6
      vertex 23.41 -70.39 1.6
    endloop
  endfacet
  facet normal 0 0 1
    outer loop
      vertex 2.48999 -71.88 1.6
      vertex 23.41 -70.39 1.6
      vertex 18.92 -70.39 1.6
    endloop
  endfacet
  facet normal 0 0 1
    outer loop
      vertex 15.94 -70.39 1.6
      vertex 18.92 -70.39 1.6
      vertex 15.94 -33.37 1.6
    endloop
  endfacet
  facet normal 0 0 1
    outer loop
      vertex 2.48999 -71.88 1.6
      vertex 18.92 -70.39 1.6
      vertex 15.94 -70.39 1.6
    endloop
  endfacet
  facet normal 0 0 1
    outer loop
      vertex 2.48999 -71.88 1.6
      vertex 15.94 -70.39 1.6
      vertex 11.45 -70.39 1.6
    endloop
  endfacet
  facet normal 0 0 1
    outer loop
      vertex 8.47 -70.39 1.6
      vertex 11.45 -70.39 1.6
      vertex 8.47 -33.37 1.6
    endloop
  endfacet
  facet normal 0 0 1
    outer loop
      vertex 2.48999 -71.88 1.6
      vertex 11.45 -70.39 1.6
      vertex 8.47 -70.39 1.6
    endloop
  endfacet
  facet normal 0 0 1
    outer loop
      vertex 2.48999 -71.88 1.6
      vertex 8.47 -70.39 1.6
      vertex 3.98 -70.39 1.6
    endloop
  endfacet
  facet normal 0 0 1
    outer loop
      vertex 33.86 -70.39 1.6
      vertex 2.48999 -71.88 1.6
      vertex 77.19 -71.88 1.6
    endloop
  endfacet
  facet normal 0 0 1
    outer loop
      vertex 2.48999 -71.88 1.6
      vertex 3.98 -70.39 1.6
      vertex 2.48999 -31.88 1.6
    endloop
  endfacet
  facet normal 0 1 -0
    outer loop
      vertex 76.39 -31.88 9.15527e-006
      vertex 2.48999 -31.88 1.6
      vertex 77.19 -31.88 1.6
    endloop
  endfacet
  facet normal 0 1 0
    outer loop
      vertex 2.48999 -31.88 1.6
      vertex 76.39 -31.88 9.15527e-006
      vertex 3.28999 -31.88 9.15527e-006
    endloop
  endfacet
  facet normal 0 0 -1
    outer loop
      vertex 76.39 -71.88 9.15527e-006
      vertex 75.7 -70.39 9.15527e-006
      vertex 76.39 -31.88 9.15527e-006
    endloop
  endfacet
  facet normal 0 0 -1
    outer loop
      vertex 76.39 -71.88 9.15527e-006
      vertex 71.21 -70.39 9.15527e-006
      vertex 75.7 -70.39 9.15527e-006
    endloop
  endfacet
  facet normal 0 0 -1
    outer loop
      vertex 71.21 -70.39 9.15527e-006
      vertex 68.23 -70.39 9.15527e-006
      vertex 71.21 -33.37 9.15527e-006
    endloop
  endfacet
  facet normal 0 0 -1
    outer loop
      vertex 76.39 -71.88 9.15527e-006
      vertex 68.23 -70.39 9.15527e-006
      vertex 71.21 -70.39 9.15527e-006
    endloop
  endfacet
  facet normal 0 0 -1
    outer loop
      vertex 76.39 -71.88 9.15527e-006
      vertex 63.74 -70.39 9.15527e-006
      vertex 68.23 -70.39 9.15527e-006
    endloop
  endfacet
  facet normal 0 0 -1
    outer loop
      vertex 63.74 -70.39 9.15527e-006
      vertex 60.76 -70.39 9.15527e-006
      vertex 63.74 -33.37 9.15527e-006
    endloop
  endfacet
  facet normal 0 0 -1
    outer loop
      vertex 76.39 -71.88 9.15527e-006
      vertex 60.76 -70.39 9.15527e-006
      vertex 63.74 -70.39 9.15527e-006
    endloop
  endfacet
  facet normal 0 0 -1
    outer loop
      vertex 76.39 -71.88 9.15527e-006
      vertex 56.27 -70.39 9.15527e-006
      vertex 60.76 -70.39 9.15527e-006
    endloop
  endfacet
  facet normal 0 0 -1
    outer loop
      vertex 56.27 -70.39 9.15527e-006
      vertex 53.29 -70.39 9.15527e-006
      vertex 56.27 -33.37 9.15527e-006
    endloop
  endfacet
  facet normal 0 0 -1
    outer loop
      vertex 76.39 -71.88 9.15527e-006
      vertex 53.29 -70.39 9.15527e-006
      vertex 56.27 -70.39 9.15527e-006
    endloop
  endfacet
  facet normal 0 0 -1
    outer loop
      vertex 76.39 -71.88 9.15527e-006
      vertex 48.8 -70.39 9.15527e-006
      vertex 53.29 -70.39 9.15527e-006
    endloop
  endfacet
  facet normal 0 0 -1
    outer loop
      vertex 48.8 -70.39 9.15527e-006
      vertex 45.82 -70.39 9.15527e-006
      vertex 48.8 -33.37 9.15527e-006
    endloop
  endfacet
  facet normal 0 0 -1
    outer loop
      vertex 76.39 -71.88 9.15527e-006
      vertex 45.82 -70.39 9.15527e-006
      vertex 48.8 -70.39 9.15527e-006
    endloop
  endfacet
  facet normal 0 0 -1
    outer loop
      vertex 76.39 -71.88 9.15527e-006
      vertex 41.33 -70.39 9.15527e-006
      vertex 45.82 -70.39 9.15527e-006
    endloop
  endfacet
  facet normal 0 0 -1
    outer loop
      vertex 41.33 -70.39 9.15527e-006
      vertex 38.35 -70.39 9.15527e-006
      vertex 41.33 -33.37 9.15527e-006
    endloop
  endfacet
  facet normal 0 0 -1
    outer loop
      vertex 76.39 -71.88 9.15527e-006
      vertex 38.35 -70.39 9.15527e-006
      vertex 41.33 -70.39 9.15527e-006
    endloop
  endfacet
  facet normal 0 0 -1
    outer loop
      vertex 76.39 -71.88 9.15527e-006
      vertex 33.86 -70.39 9.15527e-006
      vertex 38.35 -70.39 9.15527e-006
    endloop
  endfacet
  facet normal 0 0 -1
    outer loop
      vertex 33.86 -70.39 9.15527e-006
      vertex 30.88 -70.39 9.15527e-006
      vertex 33.86 -33.37 9.15527e-006
    endloop
  endfacet
  facet normal 0 0 -1
    outer loop
      vertex 3.28999 -71.88 9.15527e-006
      vertex 33.86 -70.39 9.15527e-006
      vertex 76.39 -71.88 9.15527e-006
    endloop
  endfacet
  facet normal -0 0 -1
    outer loop
      vertex 33.86 -70.39 9.15527e-006
      vertex 3.28999 -71.88 9.15527e-006
      vertex 30.88 -70.39 9.15527e-006
    endloop
  endfacet
  facet normal 0 0 -1
    outer loop
      vertex 26.39 -70.39 9.15527e-006
      vertex 23.41 -70.39 9.15527e-006
      vertex 26.39 -33.37 9.15527e-006
    endloop
  endfacet
  facet normal -0 0 -1
    outer loop
      vertex 30.88 -70.39 9.15527e-006
      vertex 3.28999 -71.88 9.15527e-006
      vertex 26.39 -70.39 9.15527e-006
    endloop
  endfacet
  facet normal -0 0 -1
    outer loop
      vertex 26.39 -70.39 9.15527e-006
      vertex 3.28999 -71.88 9.15527e-006
      vertex 23.41 -70.39 9.15527e-006
    endloop
  endfacet
  facet normal 0 0 -1
    outer loop
      vertex 18.92 -70.39 9.15527e-006
      vertex 15.94 -70.39 9.15527e-006
      vertex 18.92 -33.37 9.15527e-006
    endloop
  endfacet
  facet normal -0 0 -1
    outer loop
      vertex 23.41 -70.39 9.15527e-006
      vertex 3.28999 -71.88 9.15527e-006
      vertex 18.92 -70.39 9.15527e-006
    endloop
  endfacet
  facet normal -0 0 -1
    outer loop
      vertex 18.92 -70.39 9.15527e-006
      vertex 3.28999 -71.88 9.15527e-006
      vertex 15.94 -70.39 9.15527e-006
    endloop
  endfacet
  facet normal 0 0 -1
    outer loop
      vertex 11.45 -70.39 9.15527e-006
      vertex 8.47 -70.39 9.15527e-006
      vertex 11.45 -33.37 9.15527e-006
    endloop
  endfacet
  facet normal -0 0 -1
    outer loop
      vertex 15.94 -70.39 9.15527e-006
      vertex 3.28999 -71.88 9.15527e-006
      vertex 11.45 -70.39 9.15527e-006
    endloop
  endfacet
  facet normal -0 0 -1
    outer loop
      vertex 11.45 -70.39 9.15527e-006
      vertex 3.28999 -71.88 9.15527e-006
      vertex 8.47 -70.39 9.15527e-006
    endloop
  endfacet
  facet normal -0 0 -1
    outer loop
      vertex 3.98 -70.39 9.15527e-006
      vertex 3.28999 -71.88 9.15527e-006
      vertex 3.98 -33.37 9.15527e-006
    endloop
  endfacet
  facet normal -0 0 -1
    outer loop
      vertex 8.47 -70.39 9.15527e-006
      vertex 3.28999 -71.88 9.15527e-006
      vertex 3.98 -70.39 9.15527e-006
    endloop
  endfacet
  facet normal 0 0 -1
    outer loop
      vertex 75.7 -33.37 9.15527e-006
      vertex 76.39 -31.88 9.15527e-006
      vertex 75.7 -70.39 9.15527e-006
    endloop
  endfacet
  facet normal 0 0 -1
    outer loop
      vertex 71.21 -33.37 9.15527e-006
      vertex 76.39 -31.88 9.15527e-006
      vertex 75.7 -33.37 9.15527e-006
    endloop
  endfacet
  facet normal 0 0 -1
    outer loop
      vertex 68.23 -33.37 9.15527e-006
      vertex 71.21 -33.37 9.15527e-006
      vertex 68.23 -70.39 9.15527e-006
    endloop
  endfacet
  facet normal 0 0 -1
    outer loop
      vertex 68.23 -33.37 9.15527e-006
      vertex 76.39 -31.88 9.15527e-006
      vertex 71.21 -33.37 9.15527e-006
    endloop
  endfacet
  facet normal 0 0 -1
    outer loop
      vertex 63.74 -33.37 9.15527e-006
      vertex 76.39 -31.88 9.15527e-006
      vertex 68.23 -33.37 9.15527e-006
    endloop
  endfacet
  facet normal 0 0 -1
    outer loop
      vertex 60.76 -33.37 9.15527e-006
      vertex 63.74 -33.37 9.15527e-006
      vertex 60.76 -70.39 9.15527e-006
    endloop
  endfacet
  facet normal 0 0 -1
    outer loop
      vertex 60.76 -33.37 9.15527e-006
      vertex 76.39 -31.88 9.15527e-006
      vertex 63.74 -33.37 9.15527e-006
    endloop
  endfacet
  facet normal 0 0 -1
    outer loop
      vertex 56.27 -33.37 9.15527e-006
      vertex 76.39 -31.88 9.15527e-006
      vertex 60.76 -33.37 9.15527e-006
    endloop
  endfacet
  facet normal 0 0 -1
    outer loop
      vertex 53.29 -33.37 9.15527e-006
      vertex 56.27 -33.37 9.15527e-006
      vertex 53.29 -70.39 9.15527e-006
    endloop
  endfacet
  facet normal 0 0 -1
    outer loop
      vertex 53.29 -33.37 9.15527e-006
      vertex 76.39 -31.88 9.15527e-006
      vertex 56.27 -33.37 9.15527e-006
    endloop
  endfacet
  facet normal 0 0 -1
    outer loop
      vertex 48.8 -33.37 9.15527e-006
      vertex 76.39 -31.88 9.15527e-006
      vertex 53.29 -33.37 9.15527e-006
    endloop
  endfacet
  facet normal 0 0 -1
    outer loop
      vertex 45.82 -33.37 9.15527e-006
      vertex 48.8 -33.37 9.15527e-006
      vertex 45.82 -70.39 9.15527e-006
    endloop
  endfacet
  facet normal 0 0 -1
    outer loop
      vertex 45.82 -33.37 9.15527e-006
      vertex 76.39 -31.88 9.15527e-006
      vertex 48.8 -33.37 9.15527e-006
    endloop
  endfacet
  facet normal 0 0 -1
    outer loop
      vertex 41.33 -33.37 9.15527e-006
      vertex 76.39 -31.88 9.15527e-006
      vertex 45.82 -33.37 9.15527e-006
    endloop
  endfacet
  facet normal 0 0 -1
    outer loop
      vertex 38.35 -33.37 9.15527e-006
      vertex 41.33 -33.37 9.15527e-006
      vertex 38.35 -70.39 9.15527e-006
    endloop
  endfacet
  facet normal 0 0 -1
    outer loop
      vertex 38.35 -33.37 9.15527e-006
      vertex 76.39 -31.88 9.15527e-006
      vertex 41.33 -33.37 9.15527e-006
    endloop
  endfacet
  facet normal 0 0 -1
    outer loop
      vertex 33.86 -33.37 9.15527e-006
      vertex 76.39 -31.88 9.15527e-006
      vertex 38.35 -33.37 9.15527e-006
    endloop
  endfacet
  facet normal 0 0 -1
    outer loop
      vertex 30.88 -33.37 9.15527e-006
      vertex 33.86 -33.37 9.15527e-006
      vertex 30.88 -70.39 9.15527e-006
    endloop
  endfacet
  facet normal 0 0 -1
    outer loop
      vertex 3.28999 -31.88 9.15527e-006
      vertex 33.86 -33.37 9.15527e-006
      vertex 30.88 -33.37 9.15527e-006
    endloop
  endfacet
  facet normal 0 0 -1
    outer loop
      vertex 3.28999 -31.88 9.15527e-006
      vertex 30.88 -33.37 9.15527e-006
      vertex 26.39 -33.37 9.15527e-006
    endloop
  endfacet
  facet normal 0 0 -1
    outer loop
      vertex 23.41 -33.37 9.15527e-006
      vertex 26.39 -33.37 9.15527e-006
      vertex 23.41 -70.39 9.15527e-006
    endloop
  endfacet
  facet normal 0 0 -1
    outer loop
      vertex 3.28999 -31.88 9.15527e-006
      vertex 26.39 -33.37 9.15527e-006
      vertex 23.41 -33.37 9.15527e-006
    endloop
  endfacet
  facet normal 0 0 -1
    outer loop
      vertex 3.28999 -31.88 9.15527e-006
      vertex 23.41 -33.37 9.15527e-006
      vertex 18.92 -33.37 9.15527e-006
    endloop
  endfacet
  facet normal 0 0 -1
    outer loop
      vertex 15.94 -33.37 9.15527e-006
      vertex 18.92 -33.37 9.15527e-006
      vertex 15.94 -70.39 9.15527e-006
    endloop
  endfacet
  facet normal 0 0 -1
    outer loop
      vertex 3.28999 -31.88 9.15527e-006
      vertex 18.92 -33.37 9.15527e-006
      vertex 15.94 -33.37 9.15527e-006
    endloop
  endfacet
  facet normal 0 0 -1
    outer loop
      vertex 3.28999 -31.88 9.15527e-006
      vertex 15.94 -33.37 9.15527e-006
      vertex 11.45 -33.37 9.15527e-006
    endloop
  endfacet
  facet normal 0 0 -1
    outer loop
      vertex 8.47 -33.37 9.15527e-006
      vertex 11.45 -33.37 9.15527e-006
      vertex 8.47 -70.39 9.15527e-006
    endloop
  endfacet
  facet normal 0 0 -1
    outer loop
      vertex 3.28999 -31.88 9.15527e-006
      vertex 11.45 -33.37 9.15527e-006
      vertex 8.47 -33.37 9.15527e-006
    endloop
  endfacet
  facet normal 0 0 -1
    outer loop
      vertex 3.28999 -31.88 9.15527e-006
      vertex 8.47 -33.37 9.15527e-006
      vertex 3.98 -33.37 9.15527e-006
    endloop
  endfacet
  facet normal 0 0 -1
    outer loop
      vertex 33.86 -33.37 9.15527e-006
      vertex 3.28999 -31.88 9.15527e-006
      vertex 76.39 -31.88 9.15527e-006
    endloop
  endfacet
  facet normal 0 0 -1
    outer loop
      vertex 3.28999 -31.88 9.15527e-006
      vertex 3.98 -33.37 9.15527e-006
      vertex 3.28999 -71.88 9.15527e-006
    endloop
  endfacet
endsolid OpenSCAD_Model
